<svg xmlns="http://www.w3.org/2000/svg" viewBox="0 0 76 76"><defs><style>.cls-1{fill:#f58125;}.cls-2{fill:#fff;}</style></defs><g id="Layer_2" data-name="Layer 2"><g id="Layer_1-2" data-name="Layer 1"><g id="_Group_" data-name="&lt;Group&gt;"><circle id="_Path_" data-name="&lt;Path&gt;" class="cls-1" cx="38" cy="38" r="38"/><g id="_Group_2" data-name="&lt;Group&gt;"><path id="_Compound_Path_" data-name="&lt;Compound Path&gt;" class="cls-2" d="M50.32 48.55a2.65 2.65 0 0 1 0 3.88c-.76.82-1.57 1.6-2.29 2.45a4.38 4.38 0 0 1-3.87 1.56 15.36 15.36 0 0 1-6.16-1.9 33.86 33.86 0 0 1-11.1-9.24 33 33 0 0 1-5.41-9.59 13.28 13.28 0 0 1-.9-5.34 4.46 4.46 0 0 1 1.28-2.93c.86-.87 1.67-1.78 2.51-2.66a2.29 2.29 0 0 1 3.59 0c.68.71 1.35 1.44 2 2.16L32 29a2.64 2.64 0 0 1 0 3.9c-.82.88-1.64 1.77-2.48 2.63a.56.56 0 0 0-.13.7 15.79 15.79 0 0 0 2.24 3.82 26.53 26.53 0 0 0 6.27 6.07c.52.35 1.1.6 1.64.91a.48.48 0 0 0 .69-.14c.82-.9 1.66-1.79 2.5-2.67a2.28 2.28 0 0 1 3.58 0q2.01 2.18 4.01 4.33z"/><path id="_Compound_Path_2" data-name="&lt;Compound Path&gt;" class="cls-2" d="M47.56 22.61a16.41 16.41 0 0 0-9.37-3.07 1.56 1.56 0 0 0-1.6 1.07 2 2 0 0 0 .29 2.1 1.92 1.92 0 0 0 1.53.59A13.62 13.62 0 0 1 50.2 31a15.14 15.14 0 0 1 1.72 6.9 1.7 1.7 0 0 0 1.86 1.82 1.73 1.73 0 0 0 1.65-2A19.64 19.64 0 0 0 50 24.56c-.57-.43-1.46-1.26-2.44-1.95z"/><path id="_Compound_Path_3" data-name="&lt;Compound Path&gt;" class="cls-2" d="M37.91 30.24a7.12 7.12 0 0 1 5.1 2.1 8.19 8.19 0 0 1 2.38 5.79 2.35 2.35 0 0 0 .38 1.19 1.66 1.66 0 0 0 2.06.54 1.77 1.77 0 0 0 1.06-1.76 12 12 0 0 0-3.2-8.21A10.6 10.6 0 0 0 38 26.51a2.09 2.09 0 0 0-.93.2 1.92 1.92 0 0 0-.87 2.17 1.69 1.69 0 0 0 1.71 1.36z"/></g></g></g></g></svg>