<svg id="Group_5478" xmlns="http://www.w3.org/2000/svg" xmlns:xlink="http://www.w3.org/1999/xlink" viewBox="0 0 340.2 162.6" style="enable-background:new 0 0 340.2 162.6"><style>.st0{clip-path:url(#SVGID_2_)}.st1{opacity:.7}.st2{clip-path:url(#SVGID_4_)}.st3{opacity:.2}.st4{fill:#95d0f0}.st5{fill:#f1f6ff}.st6{fill:#f7f7f7}.st7{fill:#3d3d3d}.st8{fill:#8f8f8f}.st9{fill:#998560}.st10{fill:#98cb33}.st11{fill:#acd841}.st12{fill:#bce04b}.st13{fill:#b5e0fc}.st14{fill:#f0f8fc}.st15{fill:#fff}.st16{fill:#ff821d}.st17{fill:#d86926}.st18{fill:#0066cb}.st19{fill:#434a54}.st20{opacity:.25}.st21{fill:#cfecff}.st22{fill:#575f69}.st23{fill:#a9b2bd}.st24{fill:#0059a3}.st25{fill:#d9d9d9}.st26{fill:#cdd0da}.st27{fill:#e6e6e6}.st28{fill:#28b5f5}.st29{fill:#a0caeb}.st30{fill:#595959}.st31{fill:#262626}</style><g><defs><path id="SVGID_1_" d="M.7.0h338.7v154.8H.7z"/></defs><clipPath id="SVGID_2_"><use xlink:href="#SVGID_1_" style="overflow:visible"/></clipPath><g class="st0"><g id="Group_4363" transform="translate(46.701 2.78)" class="st1"><g id="Group_4362"><g><defs><path id="SVGID_3_" d="M10.6 143.7c-1.5 26.7 64.1 12.1 119.2 12.1 50.9.0 89.1-1.5 105.7 1.1l11.3-32.3-16.1-66.8-31-29.9L148.5.0h-40.8L32.2 22.3l-27.6 40L0 115l8 26.1L10.6 143.7z"/></defs><clipPath id="SVGID_4_"><use xlink:href="#SVGID_3_" style="overflow:visible"/></clipPath><g id="Group_4361" class="st2"><g id="Group_4360" transform="translate(9.354 4.125)"><g id="Group_4356" class="st3"><ellipse id="Ellipse_117" class="st4" cx="112.9" cy="111" rx="112.9" ry="111"/></g><g id="Group_4357" transform="translate(22.107 21.756)" class="st3"><ellipse id="Ellipse_118" class="st4" cx="90.8" cy="89.3" rx="90.8" ry="89.3"/></g><g id="Group_4358" transform="translate(46.164 45.42)" class="st3"><ellipse id="Ellipse_119" class="st4" cx="66.7" cy="65.6" rx="66.7" ry="65.6"/></g><g id="Group_4359" transform="translate(77.373 76.108)" class="st3"><ellipse id="Ellipse_120" class="st4" cx="35.5" cy="34.9" rx="35.5" ry="34.9"/></g></g></g></g></g></g><path id="Path_2313" class="st5" d="M337.1 132.7v-2.4h-6.8v-9.4h-3.6v-1.1h-5v1.1h-5.1v10.3h-2.7v-7.6h-1v-3.5H311v-1.8h-7.8v1.8h-1.7v3.5h-1.7v-4.8h-1V90.4h-1.6v-1.2h-2l-2-17.2c0-.3-.3-.5-.6-.4-.2.0-.4.2-.4.4l-1.7 17.2h-2v1.2h-1.6v28.4h-1v15.3h-7.2v7.6H274v-29.6h-5.9v-1.3h-3.4v-4h-.7v4h-1.6v-2.4h-.7v2.4h-4.9v1.3H251v18.5h-6.9v-9.2h-7.7v2.7h-2.1v2h-4.2v-3.1h-.8v-1.2h-.7v-1.3h-6.2v1.3h-.7v1.2h-.8v8.7H219v-10.5h-7.7V120H205v1.2h-7.7v6.3h-1.4v-2.7h-6v2.7h-5.7v10.9H176v-23.8h-3.7v-3.8h-23.5v25.1h-2.5V123h-.8v-1.2h-.7v-1.3h-6.2v1.3H138v1.2h-.8v3.1H133v-2h-2.1v-2.7h-7.7v9.2h-6.9v-18.5h-5.9v-1.3h-4.9v-2.4h-.7v2.4h-1.6v-4h-.7v4h-3.4v1.3h-5.9v29.6h-4.7v-7.6h-7.2v-15.3h-1V90.4h-1.6v-1.2h-2l-1.7-17.3c0-.3-.3-.5-.6-.4-.2.0-.4.2-.4.4l-2 17.3h-2v1.2h-1.6v28.4h-1v4.8h-1.7v-3.5h-1.7v-1.8h-7.8v1.8h-1.7v3.5h-1v7.6h-2.7v-10.3h-5.1v-1.1h-5v1.1h-3.6v9.4h-6.8v2.4h-2.9v-10.1h-2.9V95.4h-4v-3.1H4v3.1H0v59.4h340.2v-22.1H337.1z"/><g id="Group_4364" transform="translate(98.095 106.169)"><path id="Rectangle_535" class="st6" d="M0 0h3.9v6.4H0z"/></g><g id="Group_4365" transform="translate(103.421 106.169)"><path id="Rectangle_536" class="st6" d="M0 0h3.9v6.4H0z"/></g><g id="Group_4366" transform="translate(108.763 106.169)"><path id="Rectangle_537" class="st6" d="M0 0h3.9v6.4H0z"/></g><g id="Group_4367" transform="translate(98.095 113.952)"><path id="Rectangle_538" class="st6" d="M0 0h3.9v6.4H0z"/></g><g id="Group_4368" transform="translate(103.421 113.952)"><path id="Rectangle_539" class="st6" d="M0 0h3.9v6.4H0z"/></g><g id="Group_4369" transform="translate(108.763 113.952)"><path id="Rectangle_540" class="st6" d="M0 0h3.9v6.4H0z"/></g><g id="Group_4370" transform="translate(98.095 121.87)"><path id="Rectangle_541" class="st6" d="M0 0h3.9v6.4H0z"/></g><g id="Group_4371" transform="translate(103.421 121.87)"><path id="Rectangle_542" class="st6" d="M0 0h3.9v6.4H0z"/></g><g id="Group_4372" transform="translate(108.763 121.87)"><path id="Rectangle_543" class="st6" d="M0 0h3.9v6.4H0z"/></g><g id="Group_4373" transform="translate(125.895 115.768)"><path id="Rectangle_544" class="st6" d="M0 0h2.8v6.4H0z"/></g><g id="Group_4374" transform="translate(125.895 123.293)"><path id="Rectangle_545" class="st6" d="M0 0h2.8v6.4H0z"/></g><g id="Group_4375" transform="translate(132.981 120.744)"><path id="Rectangle_546" class="st6" d="M0 0h4.2v2.8H0z"/></g><g id="Group_4376" transform="translate(132.981 124.826)"><path id="Rectangle_547" class="st6" d="M0 0h4.2v2.8H0z"/></g><g id="Group_4377" transform="translate(132.981 128.845)"><path id="Rectangle_548" class="st6" d="M0 0h4.2v2.8H0z"/></g><g id="Group_4378" transform="translate(132.981 132.928)"><path id="Rectangle_549" class="st6" d="M0 0h4.2v2.8H0z"/></g><g id="Group_4379" transform="translate(125.895 131.31)"><path id="Rectangle_550" class="st6" d="M0 0h2.8v2.7H0z"/></g><g id="Group_4380" transform="translate(116.364 124.196)"><path id="Rectangle_551" class="st6" d="M0 0h2.8v4H0z"/></g><g id="Group_4381" transform="translate(120.471 124.196)"><path id="Rectangle_552" class="st6" d="M0 0h2.8v4H0z"/></g><g id="Group_4382" transform="translate(138.719 116.725)"><path id="Rectangle_553" class="st6" d="M0 0h1.7v2.5H0z"/></g><g id="Group_4383" transform="translate(141.059 116.725)"><path id="Rectangle_554" class="st6" d="M0 0h1.7v2.5H0z"/></g><g id="Group_4384" transform="translate(143.314 116.725)"><path id="Rectangle_555" class="st6" d="M0 0h1.7v2.5H0z"/></g><g id="Group_4385" transform="translate(138.719 119.874)"><path id="Rectangle_556" class="st6" d="M0 0h1.7v2.5H0z"/></g><g id="Group_4386" transform="translate(141.059 119.874)"><path id="Rectangle_557" class="st6" d="M0 0h1.7v2.5H0z"/></g><g id="Group_4387" transform="translate(143.314 119.874)"><path id="Rectangle_558" class="st6" d="M0 0h1.7v2.5H0z"/></g><g id="Group_4388" transform="translate(138.719 123.143)"><path id="Rectangle_559" class="st6" d="M0 0h1.7v2.5H0z"/></g><g id="Group_4389" transform="translate(141.059 123.143)"><path id="Rectangle_560" class="st6" d="M0 0h1.7v2.5H0z"/></g><g id="Group_4390" transform="translate(143.314 123.143)"><path id="Rectangle_561" class="st6" d="M0 0h1.7v2.5H0z"/></g><g id="Group_4391" transform="translate(138.719 126.291)"><path id="Rectangle_562" class="st6" d="M0 0h1.7v2.5H0z"/></g><g id="Group_4392" transform="translate(141.059 126.291)"><path id="Rectangle_563" class="st6" d="M0 0h1.7v2.5H0z"/></g><g id="Group_4393" transform="translate(143.314 126.291)"><path id="Rectangle_564" class="st6" d="M0 0h1.7v2.5H0z"/></g><g id="Group_4394" transform="translate(138.719 129.218)"><path id="Rectangle_565" class="st6" d="M0 0h1.7v2.5H0z"/></g><g id="Group_4395" transform="translate(141.059 129.218)"><path id="Rectangle_566" class="st6" d="M0 0h1.7v2.5H0z"/></g><g id="Group_4396" transform="translate(143.314 129.218)"><path id="Rectangle_567" class="st6" d="M0 0h1.7v2.5H0z"/></g><g id="Group_4397" transform="translate(138.719 132.367)"><path id="Rectangle_568" class="st6" d="M0 0h1.7v2.5H0z"/></g><g id="Group_4398" transform="translate(141.059 132.367)"><path id="Rectangle_569" class="st6" d="M0 0h1.7v2.5H0z"/></g><g id="Group_4399" transform="translate(143.314 132.367)"><path id="Rectangle_570" class="st6" d="M0 0h1.7v2.5H0z"/></g><g id="Group_4400" transform="translate(116.364 129.301)"><path id="Rectangle_571" class="st6" d="M0 0h2.8v4H0z"/></g><g id="Group_4401" transform="translate(120.471 129.301)"><path id="Rectangle_572" class="st6" d="M0 0h2.8v4H0z"/></g><g id="Group_4402" transform="translate(98.095 129.653)"><path id="Rectangle_573" class="st6" d="M0 0h3.9v6.4H0z"/></g><g id="Group_4403" transform="translate(103.421 129.653)"><path id="Rectangle_574" class="st6" d="M0 0h3.9v6.4H0z"/></g><g id="Group_4404" transform="translate(108.763 129.653)"><path id="Rectangle_575" class="st6" d="M0 0h3.9v6.4H0z"/></g><g id="Group_4405" transform="translate(38.777 122.897)"><path id="Rectangle_576" class="st6" d="M0 0h2.3v4.1H0z"/></g><g id="Group_4406" transform="translate(42.675 122.897)"><path id="Rectangle_577" class="st6" d="M0 0h2.3v4.1H0z"/></g><g id="Group_4407" transform="translate(46.736 122.897)"><path id="Rectangle_578" class="st6" d="M0 0h2.3v4.1H0z"/></g><g id="Group_4408" transform="translate(38.777 128.811)"><path id="Rectangle_579" class="st6" d="M0 0h2.3v4.1H0z"/></g><g id="Group_4409" transform="translate(42.675 128.811)"><path id="Rectangle_580" class="st6" d="M0 0h2.3v4.1H0z"/></g><g id="Group_4410" transform="translate(46.736 128.811)"><path id="Rectangle_581" class="st6" d="M0 0h2.3v4.1H0z"/></g><g id="Group_4411" transform="translate(38.777 134.357)"><path id="Rectangle_582" class="st6" d="M0 0h2.3v4.1H0z"/></g><g id="Group_4412" transform="translate(42.675 134.357)"><path id="Rectangle_583" class="st6" d="M0 0h2.3v4.1H0z"/></g><g id="Group_4413" transform="translate(46.736 134.357)"><path id="Rectangle_584" class="st6" d="M0 0h2.3v4.1H0z"/></g><g id="Group_4414" transform="translate(130.294 118.355)"><path id="Path_2314" class="st7" d="M.8 10.7v0C.4 10.7.0 10.3.0 9.8v0-9C0 .4.4.0.8.0c0 0 0 0 0 0v0c.5.0.8.4.8.8.0.0.0.0.0.0v0 9C1.7 10.3 1.3 10.7.8 10.7z"/></g><g id="Group_4415" transform="translate(130.294 121.561)"><path id="Path_2315" class="st7" d="M.8 7.5v0C.4 7.5.0 7.1.0 6.6v0V.8C0 .4.4.0.8.0c0 0 0 0 0 0v0c.5.0.8.4.8.8.0.0.0.0.0.0v0 5.8C1.7 7.1 1.3 7.5.8 7.5z"/></g><g id="Group_4416" transform="translate(130.294 126.103)"><path id="Path_2316" class="st7" d="M.8 2.9v0C.4 2.9.0 2.6.0 2.1v0V.8C0 .4.4.0.8.0c0 0 0 0 0 0v0c.5.0.8.4.8.8.0.0.0.0.0.0v1.3C1.7 2.6 1.3 2.9.8 2.9z"/></g><g id="Group_4417" transform="translate(130.294 131.133)"><path id="Path_2317" class="st8" d="M.8 2.9v0C.4 2.9.0 2.6.0 2.1v0V.8C0 .4.4.0.8.0c0 0 0 0 0 0v0c.5.0.8.4.8.8.0.0.0.0.0.0v0 1.3C1.7 2.6 1.3 2.9.8 2.9c0 0 0 0 0 0v0z"/></g><g id="Group_4418" transform="translate(185.632 121.821)"><path id="Path_2318" class="st7" d="M.7 9V9C.3 9 0 8.7.0 8.3v0V.7C0 .3.3.0.7.0v0c.4.0.7.3.7.7v0 7.6C1.4 8.7 1.1 9 .7 9z"/></g><g id="Group_4419" transform="translate(185.632 124.529)"><path id="Path_2319" class="st7" d="M.7 6.3v0C.3 6.3.0 6 0 5.6v0V.7C0 .3.3.0.7.0v0c.4.0.7.3.7.7v0 4.9C1.4 6 1.1 6.3.7 6.3z"/></g><g id="Group_4420" transform="translate(185.632 128.366)"><path id="Path_2320" class="st7" d="M.7 2.5v0C.3 2.5.0 2.2.0 1.8v0V.7C0 .3.3.0.7.0v0c.4.0.7.3.7.7v1.1C1.4 2.2 1.1 2.5.7 2.5z"/></g><g id="Group_4421" transform="translate(185.632 132.615)"><path id="Path_2321" class="st8" d="M.7 2.5v0C.3 2.5.0 2.2.0 1.8v0V.7C0 .3.3.0.7.0v0c.4.0.7.3.7.7v0 1.1C1.4 2.2 1.1 2.5.7 2.5z"/></g><g id="Group_4422" transform="translate(7.658 98.626)"><path id="Rectangle_585" class="st6" d="M0 0h3.9v6.9H0z"/></g><g id="Group_4423" transform="translate(14.11 98.626)"><path id="Rectangle_586" class="st6" d="M0 0h3.9v6.9H0z"/></g><g id="Group_4424" transform="translate(7.658 107.384)"><path id="Rectangle_587" class="st6" d="M0 0h3.9v6.9H0z"/></g><g id="Group_4425" transform="translate(14.11 107.384)"><path id="Rectangle_588" class="st6" d="M0 0h3.9v6.9H0z"/></g><g id="Group_4426" transform="translate(7.658 116.214)"><path id="Rectangle_589" class="st6" d="M0 0h3.9v6.9H0z"/></g><g id="Group_4427" transform="translate(14.11 116.214)"><path id="Rectangle_590" class="st6" d="M0 0h3.9v6.9H0z"/></g><g id="Group_4428" transform="translate(7.658 124.972)"><path id="Rectangle_591" class="st6" d="M0 0h3.9v6.9H0z"/></g><g id="Group_4429" transform="translate(14.11 124.972)"><path id="Rectangle_592" class="st6" d="M0 0h3.9v6.9H0z"/></g><g id="Group_4430" transform="translate(7.658 133.687)"><path id="Rectangle_593" class="st6" d="M0 0h3.9v6.9H0z"/></g><g id="Group_4431" transform="translate(14.11 133.687)"><path id="Rectangle_594" class="st6" d="M0 0h3.9v6.9H0z"/></g><g id="Group_4432" transform="translate(57.344 114.138)"><path id="Rectangle_595" class="st6" d="M0 0h2.3v4.1H0z"/></g><g id="Group_4433" transform="translate(61.242 114.138)"><path id="Rectangle_596" class="st6" d="M0 0h2.3v4.1H0z"/></g><g id="Group_4434" transform="translate(57.344 119.681)"><path id="Rectangle_597" class="st6" d="M0 0h2.3v4.1H0z"/></g><g id="Group_4435" transform="translate(61.242 119.681)"><path id="Rectangle_598" class="st6" d="M0 0h2.3v4.1H0z"/></g><g id="Group_4436" transform="translate(57.344 125.028)"><path id="Rectangle_599" class="st6" d="M0 0h2.3v4.1H0z"/></g><g id="Group_4437" transform="translate(61.242 125.028)"><path id="Rectangle_600" class="st6" d="M0 0h2.3v4.1H0z"/></g><g id="Group_4438" transform="translate(57.344 130.572)"><path id="Rectangle_601" class="st6" d="M0 0h2.3v4.1H0z"/></g><g id="Group_4439" transform="translate(61.242 130.572)"><path id="Rectangle_602" class="st6" d="M0 0h2.3v4.1H0z"/></g><g id="Group_4440" transform="translate(71.747 84.815)"><path id="Rectangle_603" class="st6" d="M0 0h2.5v4.5H0z"/></g><g id="Group_4441" transform="translate(75.18 84.815)"><path id="Rectangle_604" class="st6" d="M0 0h2.5v4.5H0z"/></g><g id="Group_4442" transform="translate(71.747 90.409)"><path id="Rectangle_605" class="st6" d="M0 0h2.5v4.5H0z"/></g><g id="Group_4443" transform="translate(75.18 90.409)"><path id="Rectangle_606" class="st6" d="M0 0h2.5v4.5H0z"/></g><g id="Group_4444" transform="translate(71.747 95.906)"><path id="Rectangle_607" class="st6" d="M0 0h2.5v4.5H0z"/></g><g id="Group_4445" transform="translate(75.18 95.906)"><path id="Rectangle_608" class="st6" d="M0 0h2.5v4.5H0z"/></g><g id="Group_4446" transform="translate(71.747 101.5)"><path id="Rectangle_609" class="st6" d="M0 0h2.5v4.5H0z"/></g><g id="Group_4447" transform="translate(75.18 101.5)"><path id="Rectangle_610" class="st6" d="M0 0h2.5v4.5H0z"/></g><g id="Group_4448" transform="translate(71.747 106.935)"><path id="Rectangle_611" class="st6" d="M0 0h2.5v4.5H0z"/></g><g id="Group_4449" transform="translate(75.18 106.935)"><path id="Rectangle_612" class="st6" d="M0 0h2.5v4.5H0z"/></g><g id="Group_4450" transform="translate(71.747 112.529)"><path id="Rectangle_613" class="st6" d="M0 0h2.5v4.5H0z"/></g><g id="Group_4451" transform="translate(75.18 112.529)"><path id="Rectangle_614" class="st6" d="M0 0h2.5v4.5H0z"/></g><g id="Group_4452" transform="translate(71.747 118.026)"><path id="Rectangle_615" class="st6" d="M0 0h2.5v4.5H0z"/></g><g id="Group_4453" transform="translate(75.18 118.026)"><path id="Rectangle_616" class="st6" d="M0 0h2.5v4.5H0z"/></g><g id="Group_4454" transform="translate(71.747 123.62)"><path id="Rectangle_617" class="st6" d="M0 0h2.5v4.5H0z"/></g><g id="Group_4455" transform="translate(75.18 123.62)"><path id="Rectangle_618" class="st6" d="M0 0h2.5v4.5H0z"/></g><g id="Group_4456" transform="translate(71.747 129.656)"><path id="Rectangle_619" class="st6" d="M0 0h2.5v4.5H0z"/></g><g id="Group_4457" transform="translate(75.18 129.656)"><path id="Rectangle_620" class="st6" d="M0 0h2.5v4.5H0z"/></g><g id="Group_4458" transform="translate(307.928 121.404)"><path id="Rectangle_621" class="st6" d="M0 0h2.3v4.1H0z"/></g><g id="Group_4459" transform="translate(304.03 121.404)"><path id="Rectangle_622" class="st6" d="M0 0h2.3v4.1H0z"/></g><g id="Group_4460" transform="translate(307.928 126.947)"><path id="Rectangle_623" class="st6" d="M0 0h2.3v4.1H0z"/></g><g id="Group_4461" transform="translate(304.03 126.947)"><path id="Rectangle_624" class="st6" d="M0 0h2.3v4.1H0z"/></g><g id="Group_4462" transform="translate(307.928 132.294)"><path id="Rectangle_625" class="st6" d="M0 0h2.3v4.1H0z"/></g><g id="Group_4463" transform="translate(304.03 132.294)"><path id="Rectangle_626" class="st6" d="M0 0h2.3v4.1H0z"/></g><g id="Group_4464" transform="translate(307.928 137.837)"><path id="Rectangle_627" class="st6" d="M0 0h2.3v4.1H0z"/></g><g id="Group_4465" transform="translate(304.03 137.837)"><path id="Rectangle_628" class="st6" d="M0 0h2.3v4.1H0z"/></g><g id="Group_4466" transform="translate(293.345 92.081)"><path id="Rectangle_629" class="st6" d="M0 0h2.5v4.5H0z"/></g><g id="Group_4467" transform="translate(289.913 92.081)"><path id="Rectangle_630" class="st6" d="M0 0h2.5v4.5H0z"/></g><g id="Group_4468" transform="translate(293.345 97.675)"><path id="Rectangle_631" class="st6" d="M0 0h2.5v4.5H0z"/></g><g id="Group_4469" transform="translate(289.913 97.675)"><path id="Rectangle_632" class="st6" d="M0 0h2.5v4.5H0z"/></g><g id="Group_4470" transform="translate(293.345 103.172)"><path id="Rectangle_633" class="st6" d="M0 0h2.5v4.5H0z"/></g><g id="Group_4471" transform="translate(289.913 103.172)"><path id="Rectangle_634" class="st6" d="M0 0h2.5v4.5H0z"/></g><g id="Group_4472" transform="translate(293.345 108.766)"><path id="Rectangle_635" class="st6" d="M0 0h2.5v4.5H0z"/></g><g id="Group_4473" transform="translate(289.913 108.766)"><path id="Rectangle_636" class="st6" d="M0 0h2.5v4.5H0z"/></g><g id="Group_4474" transform="translate(293.345 114.201)"><path id="Rectangle_637" class="st6" d="M0 0h2.5v4.5H0z"/></g><g id="Group_4475" transform="translate(289.913 114.201)"><path id="Rectangle_638" class="st6" d="M0 0h2.5v4.5H0z"/></g><g id="Group_4476" transform="translate(293.345 119.795)"><path id="Rectangle_639" class="st6" d="M0 0h2.5v4.5H0z"/></g><g id="Group_4477" transform="translate(289.913 119.795)"><path id="Rectangle_640" class="st6" d="M0 0h2.5v4.5H0z"/></g><g id="Group_4478" transform="translate(293.345 125.292)"><path id="Rectangle_641" class="st6" d="M0 0h2.5v4.5H0z"/></g><g id="Group_4479" transform="translate(289.913 125.292)"><path id="Rectangle_642" class="st6" d="M0 0h2.5v4.5H0z"/></g><g id="Group_4480" transform="translate(293.345 130.886)"><path id="Rectangle_643" class="st6" d="M0 0h2.5v4.5H0z"/></g><g id="Group_4481" transform="translate(289.913 130.886)"><path id="Rectangle_644" class="st6" d="M0 0h2.5v4.5H0z"/></g><g id="Group_4482" transform="translate(293.345 136.921)"><path id="Rectangle_645" class="st6" d="M0 0h2.5v4.5H0z"/></g><g id="Group_4483" transform="translate(289.913 136.921)"><path id="Rectangle_646" class="st6" d="M0 0h2.5v4.5H0z"/></g><g id="Group_4484" transform="translate(188.066 122.093)"><path id="Rectangle_647" class="st6" d="M0 0h3.9v6.4H0z"/></g><g id="Group_4485" transform="translate(193.392 122.093)"><path id="Rectangle_648" class="st6" d="M0 0h3.9v6.4H0z"/></g><g id="Group_4486" transform="translate(199.125 115.448)"><path id="Rectangle_649" class="st6" d="M0 0h3.5v4.5H0z"/></g><g id="Group_4487" transform="translate(204.107 115.448)"><path id="Rectangle_650" class="st6" d="M0 0h3.5v4.5H0z"/></g><g id="Group_4488" transform="translate(208.982 115.448)"><path id="Rectangle_651" class="st6" d="M0 0h3.5v4.5H0z"/></g><g id="Group_4489" transform="translate(213.964 115.448)"><path id="Rectangle_652" class="st6" d="M0 0h3.5v4.5H0z"/></g><g id="Group_4490" transform="translate(199.125 121.835)"><path id="Rectangle_653" class="st6" d="M0 0h3.5v4.5H0z"/></g><g id="Group_4491" transform="translate(204.107 121.835)"><path id="Rectangle_654" class="st6" d="M0 0h3.5v4.5H0z"/></g><g id="Group_4492" transform="translate(208.982 121.835)"><path id="Rectangle_655" class="st6" d="M0 0h3.5v4.5H0z"/></g><g id="Group_4493" transform="translate(213.964 121.835)"><path id="Rectangle_656" class="st6" d="M0 0h3.5v4.5H0z"/></g><g id="Group_4494" transform="translate(222.124 116.519)"><path id="Rectangle_657" class="st6" d="M0 0h1.7v4.5H0z"/></g><g id="Group_4495" transform="translate(224.701 116.519)"><path id="Rectangle_658" class="st6" d="M0 0h1.7v4.5H0z"/></g><g id="Group_4496" transform="translate(227.374 116.519)"><path id="Rectangle_659" class="st6" d="M0 0h1.7v4.5H0z"/></g><g id="Group_4497" transform="translate(238.251 114.789)"><path id="Rectangle_660" class="st6" d="M0 0h1.7v4.5H0z"/></g><g id="Group_4498" transform="translate(240.871 114.789)"><path id="Rectangle_661" class="st6" d="M0 0h1.7v4.5H0z"/></g><g id="Group_4499" transform="translate(238.251 120.364)"><path id="Rectangle_662" class="st6" d="M0 0h1.7v4.5H0z"/></g><g id="Group_4500" transform="translate(240.871 120.364)"><path id="Rectangle_663" class="st6" d="M0 0h1.7v4.5H0z"/></g><g id="Group_4501" transform="translate(238.251 125.861)"><path id="Rectangle_664" class="st6" d="M0 0h1.7v4.5H0z"/></g><g id="Group_4502" transform="translate(240.871 125.861)"><path id="Rectangle_665" class="st6" d="M0 0h1.7v4.5H0z"/></g><g id="Group_4503" transform="translate(238.251 131.779)"><path id="Rectangle_666" class="st6" d="M0 0h1.7v3.3H0z"/></g><g id="Group_4504" transform="translate(240.871 131.779)"><path id="Rectangle_667" class="st6" d="M0 0h1.7v3.3H0z"/></g><g id="Group_4505" transform="translate(222.124 121.961)"><path id="Rectangle_668" class="st6" d="M0 0h1.7v4.5H0z"/></g><g id="Group_4506" transform="translate(224.701 121.961)"><path id="Rectangle_669" class="st6" d="M0 0h1.7v4.5H0z"/></g><g id="Group_4507" transform="translate(227.374 121.961)"><path id="Rectangle_670" class="st6" d="M0 0h1.7v4.5H0z"/></g><g id="Group_4508" transform="translate(222.124 127.686)"><path id="Rectangle_671" class="st6" d="M0 0h1.7v4.5H0z"/></g><g id="Group_4509" transform="translate(224.701 127.686)"><path id="Rectangle_672" class="st6" d="M0 0h1.7v4.5H0z"/></g><g id="Group_4510" transform="translate(227.374 127.686)"><path id="Rectangle_673" class="st6" d="M0 0h1.7v4.5H0z"/></g><g id="Group_4511" transform="translate(222.124 133.593)"><path id="Rectangle_674" class="st6" d="M0 0h1.7v2.1H0z"/></g><g id="Group_4512" transform="translate(224.701 133.593)"><path id="Rectangle_675" class="st6" d="M0 0h1.7v2.1H0z"/></g><g id="Group_4513" transform="translate(227.374 133.593)"><path id="Rectangle_676" class="st6" d="M0 0h1.7v2.1H0z"/></g><g id="Group_4514" transform="translate(199.125 128.195)"><path id="Rectangle_677" class="st6" d="M0 0h3.5v4.5H0z"/></g><g id="Group_4515" transform="translate(204.107 128.195)"><path id="Rectangle_678" class="st6" d="M0 0h3.5v4.5H0z"/></g><g id="Group_4516" transform="translate(208.982 128.195)"><path id="Rectangle_679" class="st6" d="M0 0h3.5v4.5H0z"/></g><g id="Group_4517" transform="translate(213.964 128.195)"><path id="Rectangle_680" class="st6" d="M0 0h3.5v4.5H0z"/></g><g id="Group_4518" transform="translate(188.066 129.936)"><path id="Rectangle_681" class="st6" d="M0 0h3.9v4.9H0z"/></g><g id="Group_4519" transform="translate(193.392 129.936)"><path id="Rectangle_682" class="st6" d="M0 0h3.9v4.9H0z"/></g><g id="Group_4520" transform="translate(150.222 106.101)"><path id="Path_2322" class="st7" d="M.8 10.7v0C.4 10.7.0 10.3.0 9.8c0 0 0 0 0 0v0-9C0 .4.4.0.8.0c0 0 0 0 0 0v0c.5.0.8.4.8.8.0.0.0.0.0.0v0 9C1.7 10.3 1.3 10.7.8 10.7c0 0 0 0 0 0z"/></g><g id="Group_4521" transform="translate(150.222 109.307)"><path id="Path_2323" class="st7" d="M.8 7.5v0C.4 7.5.0 7.1.0 6.6c0 0 0 0 0 0v0V.8C0 .4.4.0.8.0v0c.5.0.8.4.8.8.0.0.0.0.0.0v5.8C1.7 7.1 1.3 7.5.8 7.5c0 0 0 0 0 0z"/></g><g id="Group_4522" transform="translate(150.222 113.85)"><path id="Path_2324" class="st7" d="M.8 2.9v0C.4 2.9.0 2.6.0 2.1c0 0 0 0 0 0v0V.8C0 .4.4.0.8.0c0 0 0 0 0 0v0c.5.0.8.4.8.8.0.0.0.0.0.0v1.3C1.7 2.6 1.3 2.9.8 2.9c0 0 0 0 0 0z"/></g><g id="Group_4523" transform="translate(150.222 118.88)"><path id="Path_2325" class="st8" d="M.8 2.9v0C.4 2.9.0 2.6.0 2.1c0 0 0 0 0 0V.8C0 .4.4.0.8.0c0 0 0 0 0 0v0c.5.0.8.4.8.8.0.0.0.0.0.0v0 1.3C1.7 2.6 1.3 2.9.8 2.9z"/></g><g id="Group_4524" transform="translate(153.13 106.485)"><path id="Rectangle_683" class="st6" d="M0 0h3.9v6.4H0z"/></g><g id="Group_4525" transform="translate(158.456 106.485)"><path id="Rectangle_684" class="st6" d="M0 0h3.9v6.4H0z"/></g><g id="Group_4526" transform="translate(163.798 106.485)"><path id="Rectangle_685" class="st6" d="M0 0h3.9v6.4H0z"/></g><g id="Group_4527" transform="translate(153.13 115.047)"><path id="Rectangle_686" class="st6" d="M0 0h3.9v6.4H0z"/></g><g id="Group_4528" transform="translate(158.456 115.047)"><path id="Rectangle_687" class="st6" d="M0 0h3.9v6.4H0z"/></g><g id="Group_4529" transform="translate(163.798 115.047)"><path id="Rectangle_688" class="st6" d="M0 0h3.9v6.4H0z"/></g><g id="Group_4530" transform="translate(173.229 108.687)"><path id="Rectangle_689" class="st6" d="M0 0h1.7v6.4H0z"/></g><g id="Group_4531" transform="translate(173.229 116.155)"><path id="Rectangle_690" class="st6" d="M0 0h1.7v6.4H0z"/></g><g id="Group_4532" transform="translate(173.229 124.085)"><path id="Rectangle_691" class="st6" d="M0 0h1.7v6.4H0z"/></g><g id="Group_4533" transform="translate(173.229 132.266)"><path id="Rectangle_692" class="st6" d="M0 0h1.7v3.2H0z"/></g><g id="Group_4534" transform="translate(153.13 123.704)"><path id="Rectangle_693" class="st6" d="M0 0h3.9v6.4H0z"/></g><g id="Group_4535" transform="translate(158.456 123.704)"><path id="Rectangle_694" class="st6" d="M0 0h3.9v6.4H0z"/></g><g id="Group_4536" transform="translate(163.798 123.704)"><path id="Rectangle_695" class="st6" d="M0 0h3.9v6.4H0z"/></g><g id="Group_4537" transform="translate(153.13 131.316)"><path id="Rectangle_696" class="st6" d="M0 0h3.9v2.8H0z"/></g><g id="Group_4538" transform="translate(158.456 131.316)"><path id="Rectangle_697" class="st6" d="M0 0h3.9v2.8H0z"/></g><g id="Group_4539" transform="translate(163.798 131.316)"><path id="Rectangle_698" class="st6" d="M0 0h3.9v2.8H0z"/></g><g id="Group_4540" transform="translate(252.5 106.101)"><path id="Path_2326" class="st7" d="M.8 10.7v0C.4 10.7.0 10.3.0 9.8c0 0 0 0 0 0v0-9C0 .4.4.0.8.0c0 0 0 0 0 0v0c.5.0.8.4.8.8.0.0.0.0.0.0v0 9C1.7 10.3 1.3 10.7.8 10.7c0 0 0 0 0 0z"/></g><g id="Group_4541" transform="translate(252.5 109.307)"><path id="Path_2327" class="st7" d="M.8 7.5v0C.4 7.5.0 7.1.0 6.6c0 0 0 0 0 0v0V.8C0 .4.4.0.8.0v0c.5.0.8.4.8.8.0.0.0.0.0.0v0 5.8C1.7 7.1 1.3 7.5.8 7.5c0 0 0 0 0 0z"/></g><g id="Group_4542" transform="translate(252.5 113.85)"><path id="Path_2328" class="st7" d="M.8 2.9v0C.4 2.9.0 2.6.0 2.1c0 0 0 0 0 0v0V.8C0 .4.4.0.8.0c0 0 0 0 0 0v0c.5.0.8.4.8.8.0.0.0.0.0.0v1.3C1.7 2.6 1.3 2.9.8 2.9c0 0 0 0 0 0z"/></g><g id="Group_4543" transform="translate(255.408 106.485)"><path id="Rectangle_699" class="st6" d="M0 0h3.9v6.4H0z"/></g><g id="Group_4544" transform="translate(260.734 106.485)"><path id="Rectangle_700" class="st6" d="M0 0h3.9v6.4H0z"/></g><g id="Group_4545" transform="translate(266.076 106.485)"><path id="Rectangle_701" class="st6" d="M0 0h3.9v6.4H0z"/></g><g id="Group_4546" transform="translate(255.408 115.047)"><path id="Rectangle_702" class="st6" d="M0 0h3.9v6.4H0z"/></g><g id="Group_4547" transform="translate(260.734 115.047)"><path id="Rectangle_703" class="st6" d="M0 0h3.9v6.4H0z"/></g><g id="Group_4548" transform="translate(266.076 115.047)"><path id="Rectangle_704" class="st6" d="M0 0h3.9v6.4H0z"/></g><g id="Group_4549" transform="translate(255.408 123.704)"><path id="Rectangle_705" class="st6" d="M0 0h3.9v6.4H0z"/></g><g id="Group_4550" transform="translate(260.734 123.704)"><path id="Rectangle_706" class="st6" d="M0 0h3.9v6.4H0z"/></g><g id="Group_4551" transform="translate(266.076 123.704)"><path id="Rectangle_707" class="st6" d="M0 0h3.9v6.4H0z"/></g><g id="Group_4552" transform="translate(255.408 131.316)"><path id="Rectangle_708" class="st6" d="M0 0h3.9v2.8H0z"/></g><g id="Group_4553" transform="translate(260.734 131.316)"><path id="Rectangle_709" class="st6" d="M0 0h3.9v2.8H0z"/></g><g id="Group_4554" transform="translate(266.076 131.316)"><path id="Rectangle_710" class="st6" d="M0 0h3.9v2.8H0z"/></g><path id="Rectangle_711" class="st9" d="M215.4 94.1h3.7c.3.0.5.2.5.5v52.8c0 .3-.2.5-.5.5.0.0.0.0.0.0h-3.7c-.3.0-.5-.2-.5-.5V94.5C214.9 94.3 215.1 94.1 215.4 94.1z"/><ellipse id="Ellipse_121" class="st10" cx="217.2" cy="75.5" rx="20" ry="38.5"/><g id="Group_4555" transform="translate(212.615 46.205)"><ellipse id="Ellipse_122" class="st11" cx="11.7" cy="29.3" rx="11.7" ry="29.3"/></g><g id="Group_4556" transform="translate(224.353 61.114)"><ellipse id="Ellipse_123" class="st12" cx="5.8" cy="14.4" rx="5.8" ry="14.4"/></g><path id="Rectangle_712" class="st9" d="M257.8 107.5h2.6c.3.0.5.2.5.5.0.0.0.0.0.0v39.3c0 .3-.2.5-.5.5.0.0.0.0.0.0h-2.6c-.3.0-.5-.2-.5-.5v-39.3C257.3 107.7 257.5 107.5 257.8 107.5c0 0 0 0 0 0z"/><ellipse id="Ellipse_124" class="st10" cx="259.1" cy="93.6" rx="15" ry="28.9"/><g id="Group_4557" transform="translate(255.625 71.638)"><ellipse id="Ellipse_125" class="st11" cx="8.8" cy="21.9" rx="8.8" ry="21.9"/></g><g id="Group_4558" transform="translate(264.42 82.808)"><ellipse id="Ellipse_126" class="st12" cx="4.3" cy="10.8" rx="4.3" ry="10.8"/></g><path id="Rectangle_713" class="st9" d="M101.9 132.1h1.4c.3.0.5.2.5.5v14.9c0 .3-.2.5-.5.5h-1.4c-.3.0-.5-.2-.5-.5v-14.9C101.4 132.3 101.6 132.1 101.9 132.1z"/><ellipse id="Ellipse_127" class="st10" cx="103.4" cy="119.9" rx="10" ry="19.3"/><g id="Group_4559" transform="translate(100.251 106.397)"><ellipse id="Ellipse_128" class="st11" cx="5.9" cy="14.7" rx="5.9" ry="14.7"/></g><g id="Group_4560" transform="translate(106.136 113.872)"><ellipse id="Ellipse_129" class="st12" cx="2.9" cy="7.2" rx="2.9" ry="7.2"/></g><ellipse id="Ellipse_130" class="st13" cx="60.2" cy="137.3" rx="4.9" ry="4.8"/><ellipse id="Ellipse_131" class="st13" cx="241.8" cy="52" rx="6.7" ry="6.6"/><ellipse id="Ellipse_132" class="st13" cx="88.9" cy="129.5" rx="9.9" ry="9.7"/><ellipse id="Ellipse_145" class="st14" cx="19.6" cy="39.6" rx="9.9" ry="9.7"/><ellipse id="Ellipse_133" class="st13" cx="235" cy="112.3" rx="3.7" ry="3.6"/><path id="Path_2329" class="st15" d="M166.9 49.2c-.7-.5-1.5-1.1-2.2-1.5-.2-.1-.5-.2-.7.0l-8.1 4.3c0 0 0 0 0 0-.1.0-.2.1-.2.2.0.0.0.0.0.0.0.0.0.1-.1.1-.7 1.5-1.3 3-1.7 4.6-1.3-.4-2.6-.6-3.9-.6-.2.0-.4.0-.6.0-1.2.0-2.4.1-3.6.4-.5-2.3-1.2-4.5-2.1-6.6-2.7-6.2-7.2-12.1-10.3-10.8v0c-3.1 1.3-2 8.6.7 14.8 1 2.5 2.4 4.8 4 6.9-5.8 6-5.7 15.7.4 21.5.1.1.2.2.3.2 1.6 1.5 3.4 2.6 5.5 3.3l-2.5 1.1c-.4.2-.8.5-1.1.9-1.3 1.2-1.4 3.3-.1 4.7.0.0.0.0.1.1.9.9 2.3 1.3 3.6.8-.3 1.4-.5 2.8-.5 4.2.0.8.0 2.7.1 3.5.1.4.4.7.8.6.1.0.1.0.2-.1l6.3-2.8 5.9 2.9c.4.2.8.0 1-.3.0-.1.1-.1.1-.2.1-.8.2-2.8.2-3.5.1-2.7-.5-5.3-1.7-7.7l3.1-1.4h0c1.9.0 3.4-1.5 3.4-3.4.0-.6-.2-1.2-.5-1.7l.4-.1c.7-.3 1.1-1.1.8-1.8.0.0.0.0.0.0-.2-.5-.7-.9-1.3-.9-.1.0-.2.0-.3.0 4.4-5.7 4.2-13.8-.5-19.2.7-.8 1.3-1.6 1.9-2.5 3.5 2.2 6.9 3.5 9.2 3.5 1 .1 2-.3 2.6-1C177.1 59 172.4 53.2 166.9 49.2zM133.9 40.6c1.5-.6 5.4 2.9 8.4 10 .9 2.1 1.6 4.2 2.1 6.4-2 .6-3.8 1.7-5.3 3-1.5-2-2.7-4.2-3.7-6.5C132.3 46.4 132.5 41.2 133.9 40.6z"/><path id="Path_2330" class="st16" d="M150.9 98.2l6.2 3c.1-.7.1-2.6.2-3.4.0-6.1-2.8-11-6.5-11-3.6.0-6.6 4.9-6.6 10.9.0.8.0 2.6.1 3.4L150.9 98.2z"/><path id="Path_2331" class="st16" d="M133.6 39.9c2.3-1 6.5 3.7 9.4 10.4s3.4 12.9 1.1 13.9c-2.3 1-6.5-3.7-9.4-10.4S131.3 40.9 133.6 39.9"/><ellipse id="Ellipse_134" class="st15" cx="149.4" cy="71.6" rx="7.2" ry="7.1"/><path id="Path_2332" class="st16" d="M149.9 56.9c-8.1-.2-14.8 6.3-15 14.4s6.3 14.8 14.4 15c8 .1 14.7-6.2 15-14.2C164.5 63.9 158.1 57.1 149.9 56.9zM149.2 78.7c-3.9-.2-6.9-3.5-6.7-7.5.2-3.9 3.5-6.9 7.5-6.7 3.9.2 6.9 3.5 6.7 7.3C156.5 75.8 153.1 78.9 149.2 78.7c0 0 0 0 0 0v0z"/><path id="Path_2333" class="st16" d="M156.2 52.5c-2.7 5.8-3.3 11.1-1.2 12.1 2.2 1.1 6.7-3.3 10.1-9.7.3-.7.7-1.3 1-2L156.2 52.5z"/><path id="Path_2334" class="st16" d="M164.3 48.2c.7.5 1.4 1 2.2 1.5 5.9 4.4 9.5 9.5 8 11.5s-7.5.0-13.4-4.4c-1.8-1.3-3.4-2.7-4.9-4.3L164.3 48.2z"/><path id="Path_2335" class="st16" d="M150.4 86.6c.5 1.1.0 2.4-1.1 3 0 0 0 0 0 0l-5.5 2.4c-1.1.5-2.5.0-3-1.1v0c-.5-1.1.0-2.4 1.1-2.9.0.0.0.0.0.0v0l5.5-2.4C148.5 84.9 149.8 85.4 150.4 86.6v0z"/><ellipse id="Ellipse_135" class="st16" cx="159.4" cy="85.4" rx="2.7" ry="2.6"/><path id="Path_2336" class="st16" d="M150.7 95.5l5.6 1.7c.1-.7.1-1.3.1-2 0-5.4-2.6-9.8-5.9-9.8s-5.9 4.4-5.9 9.8c0 .7.0 1.3.1 2L150.7 95.5z"/><path id="Path_2337" class="st16" d="M152.7 92.2c0-.8-.7-1.4-1.5-1.4v0c-.8.0-1.4.6-1.5 1.4v0c0 1.2-1 2.1-2.1 2.1v0c-1.2.0-2.1-.9-2.1-2.1v0c0-3.1 2.6-5.6 5.7-5.6v0c3.1.0 5.7 2.5 5.7 5.6v0c0 1.2-1 2.1-2.1 2.1v0C153.7 94.3 152.7 93.4 152.7 92.2c0 0 0 0 0 0v0z"/><path id="Path_2338" class="st17" d="M146 85.9c1.2.2 2.3.3 3.5.3 1.2.0 2.3-.1 3.5-.2C150.7 86.6 148.3 86.6 146 85.9z"
			/><path id="Path_2339" class="st16" d="M161.2 84.7c.5 1.1.0 2.4-1.1 2.9.0.0.0.0.0.0l-5.5 2.4c-1.1.5-2.5.0-3-1.1v0c-.5-1.1.0-2.4 1.1-3 0 0 0 0 0 0v0l5.5-2.4C159.4 83.1 160.7 83.6 161.2 84.7v0z"/><path id="Path_2340" class="st16" d="M162.9 82c-.1-.4-.5-.5-.9-.4v0l-3.6 1.4c-.4.1-.5.5-.4.9.0.0.0.0.0.0v0c.1.4.5.5.9.4l3.6-1.4C162.8 82.8 163 82.4 162.9 82c0 0 0 0 0 0v0 0z"/><path id="Path_2341" class="st17" d="M152.7 86c.7-.4 1.4-.7 2.1-1.1s1.4-.7 2.2-1L157 84c.2-.4.6-.8 1.1-1 .4-.2.9-.3 1.4-.4l-.6.3c-.2.1-.4.2-.6.3-.4.2-.7.6-.9 1v0 0c-.7.3-1.5.6-2.2 1S153.5 85.7 152.7 86z"/><path id="Path_2342" class="st15" d="M159.3 79.1c-.8.1-1.6.1-2.4.1-1.6.0-3.2-.5-4.5-1.5-.8-.8-1.5-1.6-1.9-2.6-.2-.4-.4-.8-.5-1.2.0-.1.0-.1-.1-.2s0-.1.0-.1c-.2-.4-.5-.5-.5-.5s-.3.2-.4.6c0 0 0 .1.0.1.0.1.0.1.0.2.0.4-.1.8-.2 1.3-.2 1.1-.6 2.1-1.1 3.1-1 1.3-2.3 2.2-3.9 2.7-.7.3-1.5.4-2.3.6-.3.0-.7.1-1 .1-.5.0-1 0-1.4-.2-1-.2-1.9-.7-2.6-1.4-1.3-1.4-2.2-3.2-2.6-5.1-.5-.1-1-.5-1.2-1-.2-.5-.6-2.2-.6-2.4-.1-.3.0-.5.3-.7 1.1-.8 2.3-1.5 3.5-2 .6-.1 1.2-.3 1.8-.3 2.3-.3 4.6-.3 6.9.0 1.6.0 3.1.0 4.7-.2 1.1-.2 2.3-.5 3.4-.9 2.1-.9 4.4-1.6 6.7-1.8.6-.1 1.2-.1 1.9-.2 1.4.2 2.7.5 4 1 .2.1.4.3.4.6.0.2.1 1.9.1 2.5-.1.6-.4 1-.9 1.3.2 1.9-.2 3.9-1.1 5.6-.5.9-1.2 1.6-2.1 2-.4.2-.9.4-1.3.5C160 79 159.7 79 159.3 79.1"/><path id="Path_2343" class="st18" d="M161.3 66.1c-2.9.2-5.7.8-8.3 2-1.1.4-2.3.7-3.5 1-1.7.2-4.8.2-4.8.2-2.8-.4-5.7-.3-8.6.3-1.2.5-2.3 1.1-3.4 1.9.0.0.4 1.8.6 2.3.2.5 1.2.7 1.2.7v.1c.3 1.9 1.1 3.7 2.5 5.1.6.6 1.4 1 2.3 1.2.4.1.9.1 1.3.1 1.1.0 2.1-.2 3.1-.6 1.4-.4 2.7-1.3 3.6-2.4.5-.9.9-1.8 1-2.8.1-.4.1-.8.1-1.2.0-.1.0-.3.0-.4.2-.9.7-1.1.9-1.1.2.0.7.0 1.1.8.1.1.1.3.1.4.1.4.3.7.5 1.1.4.9 1 1.8 1.8 2.4 1.2.9 2.6 1.4 4.1 1.4 1.1.1 2.2.0 3.2-.3.4-.1.8-.3 1.2-.5.8-.4 1.4-1 1.9-1.8.9-1.7 1.2-3.6 1-5.5v-.1c0 0 .9-.4.9-1 0-.5-.1-2.4-.1-2.4C163.8 66.5 162.6 66.2 161.3 66.1"
			/><path id="Path_2344" class="st15" d="M137.3 77.1c-.8-.9-1.4-2.1-1.4-3.3-.3-1.2.4-2.4 1.6-2.6.0.0.0.0.0.0v0c0 0 1.7-.4 1.9-.2.2.2.2.5.1.7-.1.2-.4.4-.7.4-.1.0-.2.1-.4.1-.2.1-.5.3-.6.5-.4.4-.6 1-.6 1.5.0.4.0.9.2 1.3.1.4.3.8.4 1.2C137.8 76.8 137.9 77.5 137.3 77.1"/><path id="Path_2345" class="st15" d="M140.2 71.1c.1-.1.2-.2.3-.2.3-.1.6.0.8.2.2.2.1.6-.1.8.0.0-.1.0-.1.0-.3.1-.8.3-1 0C140 71.6 140 71.3 140.2 71.1"/><path id="Path_2346" class="st15" d="M153 75c-.8-.9-1.4-2.1-1.4-3.3-.3-1.2.4-2.4 1.6-2.6.0.0.0.0.0.0v0c0 0 1.7-.4 1.9-.2.2.2.2.5.1.7-.1.2-.4.4-.7.4-.1.0-.2.1-.4.1-.2.1-.5.3-.6.6-.4.4-.6 1-.6 1.5.0.4.0.9.2 1.3.1.4.3.8.4 1.2C153.6 74.6 153.7 75.3 153 75"/><path id="Path_2347" class="st15" d="M156 68.9c.1-.1.2-.2.3-.2.3-.1.6.0.8.2.2.2.1.6-.1.7.0.0.0.0.0.0.0.0-.1.0-.1.1-.3.1-.8.3-1 0C155.8 69.4 155.8 69.1 156 68.9"/><path id="Path_2348" class="st19" d="M150.5 112.9c-6.8-.1-12.2-5.7-12.1-12.5.1-6.8 5.7-12.2 12.5-12.1 6.7.1 12.1 5.6 12.1 12.3C162.9 107.4 157.3 112.9 150.5 112.9zM150.5 92.3c-4.5.1-8.2 3.8-8.1 8.4s3.8 8.2 8.4 8.1c4.5-.1 8.1-3.7 8.1-8.2C158.8 96 155 92.3 150.5 92.3c0 0 0 0 0 0z"/><path id="Path_2349" class="st19" d="M150.7 102.6c-1.1.0-2.1-.9-2.1-2 0 0 0 0 0 0v0V90.3c0-1.1 1-2 2.1-2 1.1.0 2 .9 2 2v10.3C152.7 101.7 151.8 102.6 150.7 102.6c0 0 0 0 0 0z"/><ellipse id="Ellipse_136" class="st16" cx="142.9" cy="90.4" rx="2.7" ry="2.6"/><path id="Path_2350" class="st17" d="M142.9 87.8c.5-.1 1.1.1 1.6.4 1 .6 1.5 1.8 1.2 2.9-.1.5-.4 1-.9 1.3.7-.8.9-1.9.5-2.8-.2-.5-.5-.9-.9-1.2C143.9 88 143.4 87.8 142.9 87.8z"/><g id="Group_4561" transform="translate(126.251 78.367)" class="st20"><path id="Path_2351" class="st21" d="M0 31.9 5 7.4C5.9 3.1 9.8.0 14.2.0h54.9c4.4.0 8.3 3.1 9.2 7.4l5 24.5H0z"/></g><path id="Path_2352" class="st18" d="M207.1 85.8c-1.4-5.6-6.5-9.5-12.2-9.4h-53.8c-5.8-.1-10.8 3.8-12.2 9.4l-5.7 26.5h89.6L207.1 85.8zM132 86.4c1-4.1 4.8-7 9-6.9h53.8c4.3-.1 8 2.8 9 6.9l4.9 22.8h-81.7L132 86.4z"/><path id="Path_2353" class="st22" d="M128 123.4h14c2.3.0 4.1 1.8 4.1 4.1v15.9c0 2.3-1.9 4.1-4.1 4.1h-14c-2.3.0-4.1-1.8-4.1-4.1v-15.9C123.9 125.2 125.7 123.4 128 123.4v0z"/><path id="Path_2354" class="st22" d="M195.5 123.4h14c2.3.0 4.1 1.8 4.1 4.1v15.9c0 2.3-1.9 4.1-4.1 4.1h-14c-2.3.0-4.1-1.8-4.1-4.1v0-15.9C191.4 125.2 193.3 123.4 195.5 123.4v0z"/><path id="Path_2355" class="st23" d="M117.4 120.3h102.5v7.9c0 4.6-3.8 8.3-8.4 8.3.0.0.0.0.0.0h-85.6c-4.6.0-8.4-3.7-8.4-8.3.0.0.0.0.0.0L117.4 120.3v0z"/><path id="Path_2356" class="st18" d="M136.5 97.2h64.2c11-.1 20 8.8 20.1 19.8v0 2.4H116.4V117C116.5 105.9 125.5 97.1 136.5 97.2z"/><path id="Rectangle_714" class="st24" d="M128.2 109.5h80.9c6.6.0 12 5.4 12 12v0c0 6.6-5.4 12-12 12h-80.9c-6.6.0-12-5.4-12-12v0C116.2 114.9 121.6 109.5 128.2 109.5z"/><g id="Group_4562" transform="translate(119.32 112.566)"><path id="Path_2357" class="st25" d="M9.2 18c-5 .1-9.1-3.8-9.2-8.8-.1-5 3.8-9.1 8.8-9.2C8.9.0 9 0 9.1.0h80.5c5-.1 9.1 3.8 9.2 8.8S95 17.9 90 18c-.1.0-.2.0-.3.0H9.2v0z"/></g><path id="Path_2358" class="st26" d="M155.7 124.5h26c4.7.0 8.5 3.7 8.6 8.4v3.6h-43.1v-3.6C147.1 128.2 151 124.5 155.7 124.5z"
			/><g id="Group_4563" transform="translate(149.167 126.537)"><path id="Path_2359" class="st27" d="M39 6.6V8H0V6.6C0 2.9 3 0 6.7.0h25.6C36 0 39 2.9 39 6.6v0z"/></g><path id="Rectangle_715" class="st26" d="M148.4 131.2h40.5v1.8H148.4z"/><path id="Rectangle_716" class="st26" d="M149.6 128.2h38.1v1.8H149.6z"/><path id="Path_2360" class="st28" d="M145 95.6h10.9c1.2.0 2.1.9 2.2 2.1v0 1h-15.2v-1C142.9 96.5 143.8 95.6 145 95.6v0z"/><path id="Path_2361" class="st28" d="M181.5 95.6h10.9c1.2.0 2.2.9 2.2 2.1.0.0.0.0.0.0v0 1h-15.2v-1C179.3 96.5 180.3 95.6 181.5 95.6z"/><path id="Path_2362" class="st28" d="M131.1 128c-3.5.0-6.4-2.8-6.4-6.3s2.8-6.4 6.3-6.4c.1.0.1.0.2.0h10.5c3.5.0 6.4 2.8 6.4 6.3.0 3.5-2.8 6.4-6.3 6.4-.1.0-.1.0-.2.0H131.1z"/><path id="Path_2363" class="st29" d="M131.1 116.3h10.5c3 0 5.4 2.4 5.4 5.3.0.0.0.0.0.0v0c0 3-2.5 5.4-5.4 5.3h-10.5c-3 0-5.4-2.4-5.4-5.3v0C125.7 118.6 128.1 116.2 131.1 116.3c0 0 0 0 0 0z"/><g id="Group_4564" transform="translate(126.892 117.304)"><ellipse id="Ellipse_137" class="st30" cx="4.4" cy="4.3" rx="4.4" ry="4.3"/></g><g id="Group_4565" transform="translate(136.841 117.304)"><ellipse id="Ellipse_138" class="st30" cx="4.4" cy="4.3" rx="4.4" ry="4.3"/></g><path id="Path_2364" class="st28" d="M197.3 128c-3.5.0-6.4-2.8-6.4-6.3.0-3.5 2.8-6.4 6.3-6.4.1.0.1.0.2.0h10.5c3.5.0 6.4 2.8 6.4 6.3.0 3.5-2.8 6.4-6.3 6.4-.1.0-.1.0-.2.0H197.3z"/><path id="Path_2365" class="st29" d="M197.3 116.3h10.5c3 0 5.4 2.4 5.4 5.3.0.0.0.0.0.0v0c0 3-2.5 5.4-5.4 5.3h-10.5c-3 0-5.4-2.4-5.4-5.3v0C191.8 118.6 194.3 116.2 197.3 116.3c0 0 0 0 0 0z"/><g id="Group_4566" transform="translate(193.024 117.304)"><ellipse id="Ellipse_139" class="st30" cx="4.4" cy="4.3" rx="4.4" ry="4.3"/></g><g id="Group_4567" transform="translate(202.974 117.304)"><ellipse id="Ellipse_140" class="st30" cx="4.4" cy="4.3" rx="4.4" ry="4.3"/></g><path id="Path_2366" class="st24" d="M122.5 96.8l.4-.3c.8-.6 2-.5 2.7.4v0l3.8 4.9c.6.8.5 2-.3 2.6.0.0.0.0.0.0v0l-.4.3c-.8.6-2 .5-2.7-.4l-3.8-4.9C121.5 98.7 121.6 97.5 122.5 96.8 122.5 96.9 122.5 96.9 122.5 96.8z"/><path id="Path_2367" class="st24" d="M117.4 91h4.6c2.6.0 4.7 2.1 4.7 4.7.0.0.0.0.0.0v0 1.1c0 2.6-2.1 4.7-4.7 4.7.0.0.0.0.0.0h-4.6c-2.6.0-4.7-2.1-4.7-4.7.0.0.0.0.0.0v-1.1C112.6 93.1 114.8 91 117.4 91c0 0 0 0 0 0z"/><path id="Path_2368" class="st24" d="M208.5 104.7l-.4-.3c-.8-.6-1-1.8-.4-2.6.0.0.0.0.0.0v0l3.8-4.9c.6-.8 1.8-1 2.7-.4v0l.4.3c.8.6 1 1.8.4 2.6.0.0.0.0.0.0v0l-3.8 4.9C210.5 105.1 209.3 105.3 208.5 104.7v0z"/><path id="Path_2369" class="st24" d="M219.6 101.5H215c-2.6.0-4.7-2.1-4.7-4.7.0.0.0.0.0.0v-1.1c0-2.6 2.1-4.7 4.7-4.7.0.0.0.0.0.0h4.6c2.6.0 4.7 2.1 4.7 4.7.0.0.0.0.0.0v1.1C224.4 99.4 222.2 101.5 219.6 101.5c0 0 0 0 0 0v0z"/><g id="Group_4568" transform="translate(125.686 137.366)"><path id="Rectangle_717" class="st25" d="M3.4.0h3.3c1.9.0 3.4 1.5 3.4 3.4v1.4c0 1.9-1.5 3.4-3.4 3.4H3.4C1.5 8.2.0 6.7.0 4.8V3.4C0 1.5 1.5.0 3.4.0z"/></g><g id="Group_4569" transform="translate(193.024 137.366)"><path id="Rectangle_718" class="st25" d="M3.4.0h3.3c1.9.0 3.4 1.5 3.4 3.4v1.4c0 1.9-1.5 3.4-3.4 3.4H3.4C1.5 8.2.0 6.7.0 4.8V3.4C0 1.5 1.5.0 3.4.0z"/></g><g id="Group_4570" transform="translate(198.642 85.522)"><path id="Path_2370" class="st31" d="M3 9.8v0c.8-.1 1.3-.9 1.1-1.6.0.0.0.0.0.0l-1.3-7C2.7.4 1.9-.1 1.2.0v0C.4.2-.1.9.0 1.6c0 0 0 0 0 0v0l1.3 7C1.5 9.4 2.3 9.9 3 9.8z"/></g><g id="Group_4571" transform="translate(115.073 92.024)"><ellipse id="Ellipse_141" class="st31" cx="4.8" cy="2.7" rx="4.8" ry="2.7"/></g><g id="Group_4572" transform="translate(213.24 92.024)"><ellipse id="Ellipse_142" class="st31" cx="4.8" cy="2.7" rx="4.8" ry="2.7"/></g><g id="Group_4573" transform="translate(154.23 118.409)"><path id="Path_2371" class="st25" d="M26.5 4.8h-24C1.1 4.8.0 3.7.0 2.4c0 0 0 0 0 0v0C0 1.1 1.1.0 2.4.0c0 0 0 0 0 0h24c1.3.0 2.4 1.1 2.4 2.4.0.0.0.0.0.0v0C28.9 3.7 27.8 4.8 26.5 4.8v0z"/></g><g id="Group_4577" transform="matrix(1, 0.017, -0.017, 1, 148.477, 0)"><ellipse id="Ellipse_143" transform="matrix(2.534258e-06 1 -1 2.534258e-06 41.742 -0.344)" class="st13" cx="21" cy="20.7" rx="20.7" ry="21"/><g id="Group_4576" transform="translate(6.089 12.957)"><path id="Path_2372" class="st15" d="M.4 6.8C0 6-.1 5.1.2 4.2c.1-.2.1-.5.3-1s.2-.7.3-1c.2-.9.8-1.6 1.6-2C3.2-.1 4.1-.1 5 .2c.9.2 1.7.7 2.2 1.5.4.8.5 1.7.3 2.6C7.3 4.7 7.2 5 7.1 5.2S7 5.7 6.8 6.2C6.6 7 6 7.8 5.2 8.2 4.4 8.5 3.4 8.6 2.6 8.3 1.7 8.1.9 7.5.4 6.8zM4.3 6.9c.4-.3.8-.7.9-1.2.2-.4.2-.7.3-.9.1-.2.1-.5.2-.9.2-.5.1-1-.1-1.5C5.4 1.9 5.1 1.6 4.6 1.5 4.2 1.3 3.7 1.4 3.3 1.6 2.8 1.9 2.5 2.3 2.4 2.8 2.3 3 2.2 3.3 2.1 3.7S1.9 4.4 1.8 4.6c-.2.5-.2 1 .1 1.5C2.1 6.6 2.5 6.8 3 7 3.4 7.1 3.9 7.1 4.3 6.9z"/><path id="Path_2373" class="st15" d="M8 9.1C7.7 8.5 7.6 7.7 7.8 7l.1-.5L8.1 6c.2-.7.7-1.3 1.4-1.6.7-.3 1.5-.3 2.3-.1.8.2 1.4.6 1.8 1.3C13.9 6.2 14 7 13.8 7.7c0 .1-.1.3-.1.5-.1.2-.1.4-.2.5-.2.7-.7 1.3-1.3 1.6-.7.3-1.5.3-2.3.1C9.1 10.2 8.5 9.8 8 9.1zM11.3 9.1c.3-.2.6-.6.7-1 0-.1.1-.2.1-.4.1-.2.1-.4.1-.4.1-.4.1-.8.0-1.2-.2-.3-.5-.6-.8-.6-.3-.1-.7-.1-1 .1-.3.2-.6.6-.7 1L9.5 7 9.4 7.4c-.1.4-.1.8.0 1.2.2.3.5.6.8.6C10.6 9.4 11 9.3 11.3 9.1v0z"/><path id="Path_2374" class="st15" d="M13.5 13.5c0-.1.0-.1.0-.2l2.2-7.4c0-.1.1-.1.1-.2.1.0.1.0.2.0L17 6c.1.0.1.1.2.1.0.1.0.1.0.2l-.1.4c.6-.4 1.4-.6 2.1-.3.7.1 1.2.6 1.6 1.2.3.7.3 1.4.1 2.1.0.1-.1.2-.1.4-.1.2-.1.3-.1.4-.2.7-.6 1.3-1.2 1.7-.6.4-1.3.4-2 .2-.7-.2-1.2-.6-1.5-1.3l-.8 2.5c0 .1-.1.1-.1.2-.1.0-.1.0-.2.0l-1-.3C13.6 13.6 13.6 13.6 13.5 13.5zM19 10.1c0-.1.1-.2.1-.3.0-.1.1-.3.1-.3.2-1 0-1.6-.9-1.9-.4-.1-.8-.1-1.1.1-.3.2-.5.5-.6.9.0.1-.1.2-.1.4s-.1.3-.1.4c-.1.3-.1.7.1 1.1.2.3.5.6.8.7C18.1 11.4 18.6 11 19 10.1z"/><path id="Path_2375" class="st15" d="M21.9 13.6c-.3-.2-.5-.5-.7-.8-.1-.2-.1-.4-.1-.7.0-.1.1-.1.1-.2.1.0.1.0.2.0l.9.3c.1.0.1.1.1.1.0.0.1.1.2.3.1.2.2.3.4.4.2.1.3.2.5.3.3.1.5.1.8.0.2.0.4-.2.4-.4.0-.1.0-.3.0-.4-.1-.2-.2-.3-.4-.4-.3-.2-.6-.4-.9-.6-.5-.2-.9-.6-1.2-1C22 10.1 22 9.6 22.1 9.2c.1-.3.3-.6.5-.8.3-.2.6-.4 1-.4C24.1 8 24.6 8 25 8.2c.5.1.9.3 1.3.6.3.2.5.5.7.8.1.2.2.4.1.7.0.1-.1.1-.1.2-.1.0-.1.0-.2.0l-.9-.2c-.1.0-.1-.1-.2-.1.0-.1-.1-.1-.2-.3-.1-.1-.2-.3-.3-.4-.1-.1-.3-.2-.5-.2-.2-.1-.5-.1-.7.0-.2.1-.3.2-.4.4.0.1.0.2.0.4.1.2.2.3.4.4.3.2.6.4.9.5 1.3.7 1.8 1.4 1.5 2.4-.2.5-.6.9-1.1 1.1-.7.2-1.4.2-2.1-.1C22.8 14.1 22.3 13.9 21.9 13.6z"/><path id="Path_2376" class="st15" d="M27.2 15.2c0-.1.0-.1.0-.2l.3-1.1c0-.1.1-.1.1-.2.1.0.1.0.2.0l1.1.3c.1.0.1.1.2.1.0.1.0.1.0.2l-.3 1.1c0 .1-.1.1-.1.2-.1.0-.2.0-.2.0l-1.1-.3C27.3 15.3 27.2 15.2 27.2 15.2zM27.9 13c0-.1.0-.1.0-.2l1.5-5.1c0-.1.1-.1.1-.2.1.0.1.0.2.0l.9.3c.1.0.1.1.2.1.0.1.0.1.0.2l-1.5 5.1c0 .1-.1.1-.1.2-.1.0-.1.0-.2.0l-.9-.3C28 13.1 27.9 13.1 27.9 13z"/></g></g></g></g></svg>