<svg xmlns="http://www.w3.org/2000/svg" viewBox="0 0 38.012 26.132"><g transform="translate(-51 -1929.709)"><g transform="translate(76.197 1934.527)"><g transform="translate(0 0)"><path d="M339.392,153.339l12.815,8.1V144.9Z" transform="translate(-339.392 -144.896)" fill="#fff"/></g></g><g transform="translate(51 1934.527)"><g transform="translate(0 0)"><path d="M0,144.9v16.545l12.815-8.1Z" transform="translate(0 -144.896)" fill="#fff"/></g></g><g transform="translate(51.071 1929.709)"><g transform="translate(0 0)"><path d="M36.525,80H3.264a2.346,2.346,0,0,0-2.3,2.022L19.895,94.5,38.829,82.022A2.346,2.346,0,0,0,36.525,80Z" transform="translate(-0.96 -80)" fill="#fff"/></g></g><g transform="translate(51.076 1944.402)"><g transform="translate(0 0)"><path d="M23.969,277.922l-3.362,2.214a1.193,1.193,0,0,1-1.307,0l-3.362-2.217L1.024,287.354a2.342,2.342,0,0,0,2.3,2.005h33.26a2.342,2.342,0,0,0,2.3-2.005Z" transform="translate(-1.024 -277.92)" fill="#fff"/></g></g></g></svg>
