<svg xmlns="http://www.w3.org/2000/svg"
     viewBox="0 0 36.948 34.95">
  <g transform="translate(-61.025 -70.046)">
    <path
      d="M97.814,86.606a9.25,9.25,0,0,0,.146-1.118,14.055,14.055,0,0,0-.017-1.435c-.448-7.8-8.537-14.007-18.449-14.007-10.2,0-18.469,6.577-18.469,14.69,0,7.457,6.986,13.616,16.036,14.564a1,1,0,0,1,.891,1.11l-.385,3.468a1.007,1.007,0,0,0,1.44,1.016c7.646-3.69,12.218-7.486,14.949-10.775.5-.6,2.117-2.868,2.447-3.464A12.365,12.365,0,0,0,97.814,86.606Z"
      fill="#fff"/>
    <path
      d="M120.928,172.306v-6.188a.945.945,0,0,0-.945-.945h0a.945.945,0,0,0-.945.945v7.132a.945.945,0,0,0,.945.945h3.779a.945.945,0,0,0,.945-.945h0a.945.945,0,0,0-.945-.945Z"
      transform="translate(-51.59 -84.595)" fill="#00c500"/>
    <path
      d="M179.485,174.2h-.413a.738.738,0,0,1-.738-.738v-7.545a.738.738,0,0,1,.738-.738h.413a.738.738,0,0,1,.738.738v7.545A.738.738,0,0,1,179.485,174.2Z"
      transform="translate(-104.32 -84.595)" fill="#00c500"/>
    <path
      d="M213.674,166.118v4.357s-3.773-4.921-3.83-4.986a.94.94,0,0,0-.741-.316.97.97,0,0,0-.908.983v7.094a.945.945,0,0,0,.945.945h0a.945.945,0,0,0,.945-.945V168.92s3.83,4.964,3.886,5.017a.939.939,0,0,0,.639.258.979.979,0,0,0,.954-.984v-7.093a.945.945,0,0,0-.945-.945h0A.945.945,0,0,0,213.674,166.118Z"
      transform="translate(-130.874 -84.594)" fill="#00c500"/>
    <path
      d="M293.206,166.119h0a.945.945,0,0,0-.945-.945h-3.779a.945.945,0,0,0-.945.945v7.132a.945.945,0,0,0,.945.945h3.779a.945.945,0,0,0,.945-.945h0a.945.945,0,0,0-.945-.945h-2.834V170.63h2.834a.945.945,0,0,0,.945-.945h0a.945.945,0,0,0-.945-.945h-2.834v-1.677h2.834A.945.945,0,0,0,293.206,166.119Z"
      transform="translate(-201.432 -84.595)" fill="#00c500"/>
  </g>
</svg>
