<?xml version="1.0" standalone="no"?>
<!DOCTYPE svg PUBLIC "-//W3C//DTD SVG 20010904//EN"
 "http://www.w3.org/TR/2001/REC-SVG-20010904/DTD/svg10.dtd">
<svg version="1.0" xmlns="http://www.w3.org/2000/svg"
 width="180.000000pt" height="180.000000pt" viewBox="0 0 180.000000 180.000000"
 preserveAspectRatio="xMidYMid meet">
<metadata>
Created by potrace 1.11, written by Peter Selinger 2001-2013
</metadata>
<g transform="translate(0.000000,180.000000) scale(0.100000,-0.100000)"
fill="#000000" stroke="none">
<path d="M0 900 l0 -900 900 0 900 0 0 900 0 900 -900 0 -900 0 0 -900z m479
700 c82 -60 206 -263 247 -405 l18 -60 135 2 135 1 21 66 c12 37 26 71 31 76
5 5 58 37 119 71 l109 62 41 -22 c64 -34 196 -152 238 -212 45 -66 57 -118 32
-142 -35 -36 -168 -10 -281 53 l-51 29 -36 -51 -36 -52 40 -55 c142 -198 86
-485 -121 -616 -76 -48 -156 -67 -260 -63 -123 5 -204 40 -289 125 -152 153
-171 380 -47 553 l36 50 -45 65 c-93 137 -155 298 -163 422 -4 66 -1 88 12
108 23 34 63 32 115 -5z"/>
<path d="M810 907 c-51 -17 -116 -87 -130 -139 -42 -156 103 -300 259 -258 53
14 126 79 142 127 18 57 7 145 -24 190 -51 73 -161 109 -247 80z"/>
</g>
</svg>
