<svg xmlns="http://www.w3.org/2000/svg" width="14.545" height="16" viewBox="0 0 14.545 16"><path d="M9.273,14.091a.727.727,0,1,0-.727-.727A.727.727,0,0,0,9.273,14.091Zm3.636,0a.727.727,0,1,0-.727-.727A.727.727,0,0,0,12.909,14.091Zm0-2.909a.727.727,0,1,0-.727-.727A.727.727,0,0,0,12.909,11.182Zm-3.636,0a.727.727,0,1,0-.727-.727A.727.727,0,0,0,9.273,11.182Zm5.091-8.727h-.727V1.727a.727.727,0,0,0-1.455,0v.727H6.364V1.727a.727.727,0,0,0-1.455,0v.727H4.182A2.182,2.182,0,0,0,2,4.636V14.818A2.182,2.182,0,0,0,4.182,17H14.364a2.182,2.182,0,0,0,2.182-2.182V4.636A2.182,2.182,0,0,0,14.364,2.455Zm.727,12.364a.727.727,0,0,1-.727.727H4.182a.727.727,0,0,1-.727-.727V8.273H15.091Zm0-8H3.455V4.636a.727.727,0,0,1,.727-.727h.727v.727a.727.727,0,0,0,1.455,0V3.909h5.818v.727a.727.727,0,0,0,1.455,0V3.909h.727a.727.727,0,0,1,.727.727ZM5.636,11.182a.727.727,0,1,0-.727-.727A.727.727,0,0,0,5.636,11.182Zm0,2.909a.727.727,0,1,0-.727-.727A.727.727,0,0,0,5.636,14.091Z" transform="translate(-2 -1)" fill="#1067cc"/></svg>
