<svg xmlns="http://www.w3.org/2000/svg" width="20" height="20" viewBox="0 0 30 30">
  <g id="Group_1671" data-name="Group 1671" transform="translate(-250.3 -65.1)">
    <g id="Group_1669" data-name="Group 1669" transform="translate(250.3 65.1)">
      <path id="Path_1448" data-name="Path 1448" d="M252.014,95.1a1.556,1.556,0,0,1-1.2-.514,1.657,1.657,0,0,1,0-2.4l26.571-26.571a1.7,1.7,0,0,1,2.4,2.4L253.214,94.586a1.556,1.556,0,0,1-1.2.514Z" transform="translate(-250.3 -65.1)" fill="#e2e3ed"/>
    </g>
    <g id="Group_1670" data-name="Group 1670" transform="translate(250.3 65.1)">
      <path id="Path_1449" data-name="Path 1449" d="M278.586,95.1a1.556,1.556,0,0,1-1.2-.514L250.814,68.014a1.7,1.7,0,0,1,2.4-2.4l26.571,26.571a1.657,1.657,0,0,1,0,2.4,1.852,1.852,0,0,1-1.2.514Z" transform="translate(-250.3 -65.1)" fill="#e2e3ed"/>
    </g>
  </g>
</svg>
