<svg xmlns="http://www.w3.org/2000/svg" width="14.55" height="16.005" viewBox="0 0 14.55 16.005"><g transform="translate(-2939.988 -7835.076)"><path d="M2952.355,7836.531h-.727v-.728a.728.728,0,0,0-1.455,0v.728h-5.82v-.728a.727.727,0,1,0-1.455,0v.728h-.728a2.182,2.182,0,0,0-2.183,2.183V7848.9a2.182,2.182,0,0,0,2.183,2.182h10.185a2.182,2.182,0,0,0,2.183-2.182v-10.186A2.182,2.182,0,0,0,2952.355,7836.531Zm.728,12.368a.727.727,0,0,1-.728.727h-10.185a.727.727,0,0,1-.728-.727v-6.548h11.64Zm0-8h-11.64v-2.183a.728.728,0,0,1,.728-.728h.728v.728a.727.727,0,1,0,1.455,0v-.728h5.82v.728a.728.728,0,0,0,1.455,0v-.728h.727a.728.728,0,0,1,.728.728Z" fill="#1067cc"/><g transform="translate(2942.75 7843.453)"><path d="M2944.741,7851.634a1.718,1.718,0,0,1-.713-.55,1.237,1.237,0,0,1-.244-.654.143.143,0,0,1,.048-.109.161.161,0,0,1,.113-.044h1a.244.244,0,0,1,.138.033.312.312,0,0,1,.095.105q.138.356.764.356a.823.823,0,0,0,.553-.168.559.559,0,0,0,.2-.45q0-.546-.728-.546h-.815a.185.185,0,0,1-.135-.055.182.182,0,0,1-.054-.135v-.429a.278.278,0,0,1,.124-.248l1.171-.96h-2.008a.177.177,0,0,1-.127-.055.173.173,0,0,1-.054-.127v-.721a.187.187,0,0,1,.051-.134.173.173,0,0,1,.131-.055h3.39a.173.173,0,0,1,.131.055.188.188,0,0,1,.051.134v.648a.284.284,0,0,1-.116.24l-1.077.981.051.015a1.893,1.893,0,0,1,1.041.451,1.324,1.324,0,0,1,.385,1.025,1.371,1.371,0,0,1-.279.854,1.772,1.772,0,0,1-.772.564,2.987,2.987,0,0,1-1.117.2A2.876,2.876,0,0,1,2944.741,7851.634Z" transform="translate(-2943.784 -7846.618)" fill="#1067cc"/><path d="M2951.213,7851.3a2.054,2.054,0,0,1-.575-1.383c-.009-.262-.015-.5-.015-.706s.005-.456.015-.728a2.158,2.158,0,0,1,.273-.971,1.735,1.735,0,0,1,.706-.673,2.362,2.362,0,0,1,1.124-.247,2.386,2.386,0,0,1,1.127.247,1.734,1.734,0,0,1,.709.673,2.17,2.17,0,0,1,.273.971q.014.205.014.728c0,.341,0,.575-.014.706a2.056,2.056,0,0,1-.575,1.383,2.477,2.477,0,0,1-3.063,0Zm2.037-.79a1.092,1.092,0,0,0,.182-.629c.01-.141.015-.369.015-.684s0-.539-.015-.67a1.107,1.107,0,0,0-.182-.622.59.59,0,0,0-.509-.229q-.655,0-.691.851-.007.2-.007.67c0,.314,0,.543.007.684q.036.851.691.851A.6.6,0,0,0,2953.25,7850.508Z" transform="translate(-2945.648 -7846.591)" fill="#1067cc"/></g></g></svg>
