<svg xmlns="http://www.w3.org/2000/svg" width="13.6" height="17" viewBox="0 0 13.6 17"><path d="M8.25,8.8H9.1a.85.85,0,0,0,0-1.7H8.25a.85.85,0,1,0,0,1.7Zm0,1.7a.85.85,0,0,0,0,1.7h5.1a.85.85,0,0,0,0-1.7ZM17.6,7.9a1.114,1.114,0,0,0-.051-.229V7.593a.91.91,0,0,0-.162-.238h0l-5.1-5.1h0a.91.91,0,0,0-.238-.162.272.272,0,0,0-.076,0A.748.748,0,0,0,11.693,2H6.55A2.55,2.55,0,0,0,4,4.55v11.9A2.55,2.55,0,0,0,6.55,19h8.5a2.55,2.55,0,0,0,2.55-2.55V7.9Zm-5.1-3,2.2,2.2H13.35a.85.85,0,0,1-.85-.85ZM15.9,16.45a.85.85,0,0,1-.85.85H6.55a.85.85,0,0,1-.85-.85V4.55a.85.85,0,0,1,.85-.85H10.8V6.25A2.55,2.55,0,0,0,13.35,8.8H15.9ZM13.35,13.9H8.25a.85.85,0,1,0,0,1.7h5.1a.85.85,0,1,0,0-1.7Z" transform="translate(-4 -2)" fill="#1067cc"/></svg>
