<svg xmlns="http://www.w3.org/2000/svg" width="15.2" height="16" viewBox="0 0 15.2 16"><path d="M9.7,16.4H4.9a.8.8,0,0,1-.8-.8V4.4a.8.8,0,0,1,.8-.8h4V6a2.4,2.4,0,0,0,2.4,2.4h2.4v4a.8.8,0,1,0,1.6,0V7.55a1.048,1.048,0,0,0-.048-.216V7.262a.856.856,0,0,0-.152-.224h0l-4.8-4.8h0a.856.856,0,0,0-.224-.152.232.232,0,0,0-.08,0A.88.88,0,0,0,9.746,2H4.9A2.4,2.4,0,0,0,2.5,4.4V15.6A2.4,2.4,0,0,0,4.9,18H9.7a.8.8,0,1,0,0-1.6Zm.8-11.669L12.569,6.8H11.3a.8.8,0,0,1-.8-.8Zm-4,6.87h4.8a.8.8,0,0,0,0-1.6H6.5a.8.8,0,0,0,0,1.6Zm3.2,1.6H6.5a.8.8,0,1,0,0,1.6H9.7a.8.8,0,1,0,0-1.6ZM6.5,8.4h.8a.8.8,0,0,0,0-1.6H6.5a.8.8,0,0,0,0,1.6Zm10.965,5.031a.8.8,0,0,0-1.136,0L13.7,16.068l-1.032-1.04a.8.8,0,1,0-1.136,1.136l1.6,1.6a.8.8,0,0,0,1.136,0l3.2-3.2a.8.8,0,0,0,0-1.136Z" transform="translate(-2.5 -2)" fill="#1067cc"/></svg>
