<svg xmlns="http://www.w3.org/2000/svg" width="15.035" height="15" viewBox="0 0 15.035 15"><path d="M15.538,6.646V2.752a.752.752,0,1,0-1.5,0V6.646a2.255,2.255,0,0,0,0,4.24v5.4a.752.752,0,0,0,1.5,0v-5.4a2.255,2.255,0,0,0,0-4.24Zm-.752,2.872a.752.752,0,1,1,.752-.752A.752.752,0,0,1,14.786,9.518Zm-4.511,1.639v-8.4a.752.752,0,0,0-1.5,0v8.4a2.255,2.255,0,0,0,0,4.24v.887a.752.752,0,0,0,1.5,0V15.4a2.255,2.255,0,0,0,0-4.24Zm-.752,2.872a.752.752,0,1,1,.752-.752A.752.752,0,0,1,9.524,14.028ZM5.013,5.142V2.752a.752.752,0,1,0-1.5,0V5.142a2.255,2.255,0,0,0,0,4.24v6.9a.752.752,0,0,0,1.5,0v-6.9a2.255,2.255,0,0,0,0-4.24ZM4.261,8.014a.752.752,0,1,1,.752-.752A.752.752,0,0,1,4.261,8.014Z" transform="translate(17.035 -2.023) rotate(90)" fill="#555"/></svg>