<svg xmlns="http://www.w3.org/2000/svg" width="34.468" height="34.468"
     viewBox="0 0 34.468 34.468">
  <g transform="translate(0 17.234) rotate(-45)">
    <g transform="translate(0 0)">
      <path
        d="M23.748,15.705l-8.043,8.043a2.135,2.135,0,0,1-3.016,0L.625,11.684a2.131,2.131,0,0,1,0-3.016L8.668.625a2.131,2.131,0,0,1,3.016,0L23.748,12.689A2.131,2.131,0,0,1,23.748,15.705ZM2.133,9.171l-.5.5a.712.712,0,0,0,0,1.005L13.695,22.743a.712.712,0,0,0,1.005,0l.5-.5ZM4.144,7.16,3.139,8.165,16.208,21.235l1.005-1.005Zm18.6,6.535L10.679,1.63a.71.71,0,0,0-1.005,0L5.149,6.155,18.219,19.224,22.743,14.7A.712.712,0,0,0,22.743,13.695Z"
        fill="#1067cc"/>
    </g>
    <g transform="translate(8.044 4.021)">
      <g transform="translate(0 0)">
        <path
          d="M5.65,5.652A2.131,2.131,0,0,1,2.014,4.262,2.133,2.133,0,1,1,4.26,2.016,2.131,2.131,0,0,1,5.65,5.652ZM2.634,1.63a.711.711,0,1,0,0,1.005A.711.711,0,0,0,2.634,1.63ZM4.645,3.641a.711.711,0,1,0,0,1.005A.712.712,0,0,0,4.645,3.641Z"
          fill="#1067cc"/>
      </g>
    </g>
    <g transform="translate(17.508 13.486)">
      <g transform="translate(0 0)">
        <path
          d="M2.219,2.219a.711.711,0,0,1-1.005,0L.208,1.214A.711.711,0,0,1,1.214.208L2.219,1.214A.711.711,0,0,1,2.219,2.219Z"
          fill="#1067cc"/>
      </g>
    </g>
    <g transform="translate(14.492 10.47)">
      <g transform="translate(0 0)">
        <path
          d="M2.219,2.219a.711.711,0,0,1-1.005,0L.208,1.214A.711.711,0,0,1,1.214.208L2.219,1.214A.711.711,0,0,1,2.219,2.219Z"
          fill="#1067cc"/>
      </g>
    </g>
  </g>
</svg>
