<svg xmlns="http://www.w3.org/2000/svg" width="15.044" height="15" viewBox="0 0 15.044 15"><path d="M15.161,10.314a2.375,2.375,0,0,1-.506-.091,7.126,7.126,0,0,1-.989-.294,1.51,1.51,0,0,0-1.872.755l-.166.34A9.2,9.2,0,0,1,9.62,9.513,9.2,9.2,0,0,1,8.11,7.505l.317-.211a1.51,1.51,0,0,0,.755-1.872,7.8,7.8,0,0,1-.294-.989c-.038-.166-.068-.34-.091-.513A2.265,2.265,0,0,0,6.532,2.04H4.268A2.265,2.265,0,0,0,2,4.614,14.343,14.343,0,0,0,14.474,17.04h.287a2.259,2.259,0,0,0,2.265-2.272V12.5A2.265,2.265,0,0,0,15.161,10.314Zm.377,4.529a.755.755,0,0,1-.257.566.8.8,0,0,1-.619.189A12.833,12.833,0,0,1,3.558,4.44a.823.823,0,0,1,.189-.619.755.755,0,0,1,.566-.257H6.578a.755.755,0,0,1,.755.6q.045.31.113.611a8.394,8.394,0,0,0,.347,1.17l-1.057.491a.755.755,0,0,0-.37,1,10.938,10.938,0,0,0,5.284,5.284.8.8,0,0,0,1-.393l.468-1.057a10.334,10.334,0,0,0,1.193.347q.3.068.611.113a.755.755,0,0,1,.6.755Z" transform="translate(-1.981 -2.04)" fill="#1067cc"/></svg>
