<svg xmlns="http://www.w3.org/2000/svg" width="16.15" height="17" viewBox="0 0 16.15 17"><path d="M6.75,8.8H7.6a.85.85,0,1,0,0-1.7H6.75a.85.85,0,0,0,0,1.7Zm3.4,5.1H6.75a.85.85,0,0,0,0,1.7h3.4a.85.85,0,1,0,0-1.7Zm0-3.4H6.75a.85.85,0,0,0,0,1.7h3.4a.85.85,0,1,0,0-1.7Zm5.882-2.227a.85.85,0,0,0-.178-.926l-5.1-5.1h0a.909.909,0,0,0-.238-.162.272.272,0,0,0-.076,0L10.2,2H5.05A2.55,2.55,0,0,0,2.5,4.55v11.9A2.55,2.55,0,0,0,5.05,19h5.1a.85.85,0,1,0,0-1.7H5.05a.85.85,0,0,1-.85-.85V4.55a.85.85,0,0,1,.85-.85H9.3V6.25A2.55,2.55,0,0,0,11.85,8.8h3.4A.85.85,0,0,0,16.032,8.273ZM11.85,7.1A.85.85,0,0,1,11,6.25V4.9l2.2,2.2Zm5.95,3.4H13.55a.85.85,0,0,0-.85.85v6.8a.839.839,0,0,0,1.3.705l1.675-1.1,1.7,1.1a.85.85,0,0,0,1.275-.705v-6.8A.85.85,0,0,0,17.8,10.5Zm-.85,6.052-.8-.535a.85.85,0,0,0-.952,0l-.8.535V12.2h2.55Z" transform="translate(-2.5 -2)" fill="#1067cc"/></svg>
