<svg xmlns="http://www.w3.org/2000/svg" width="15.997" height="16" viewBox="0 0 15.997 16"><path d="M7.6,10H6a.8.8,0,0,0,0,1.6H7.6a.8.8,0,1,0,0-1.6ZM6.8,8.4H10a.8.8,0,0,0,0-1.6H6.8a.8.8,0,0,0,0,1.6Zm.8,4.8H6a.8.8,0,0,0,0,1.6H7.6a.8.8,0,1,0,0-1.6ZM17.2,10H14.8V2.8a.8.8,0,0,0-1.2-.7L11.2,3.479,8.8,2.1a.8.8,0,0,0-.8,0L5.6,3.479,3.2,2.1A.8.8,0,0,0,2,2.8V15.6A2.4,2.4,0,0,0,4.4,18H15.6A2.4,2.4,0,0,0,18,15.6V10.8A.8.8,0,0,0,17.2,10ZM4.4,16.4a.8.8,0,0,1-.8-.8V4.183l1.6.912a.864.864,0,0,0,.8,0L8.4,3.719l2.4,1.376a.864.864,0,0,0,.8,0l1.6-.912V15.6a2.4,2.4,0,0,0,.144.8Zm12-.8a.8.8,0,0,1-1.6,0v-4h1.6Zm-5.151-2.264a.608.608,0,0,0-.144-.072.48.48,0,0,0-.152-.048.8.8,0,0,0-.72.216A.84.84,0,0,0,10,14a.8.8,0,0,0,.056.3.952.952,0,0,0,.176.264.92.92,0,0,0,.264.168.752.752,0,0,0,.608,0,.92.92,0,0,0,.264-.168A.8.8,0,0,0,11.6,14a.84.84,0,0,0-.232-.568,1.264,1.264,0,0,0-.12-.1Zm.112-3.1a.83.83,0,1,0,.176.264.728.728,0,0,0-.176-.264Z" transform="translate(-2 -1.996)" fill="#1067cc"/></svg>
