<svg xmlns="http://www.w3.org/2000/svg" width="16.614" height="15.544" viewBox="0 0 16.614 15.544"><defs><style>.a{fill:#21c794;}</style></defs><g transform="translate(-31 -4.094)"><g transform="translate(36.538 4.094)"><g transform="translate(0)"><path fill="currentColor" class="a" d="M192.076,99.9a1.111,1.111,0,0,0-1.108-1.108,1.108,1.108,0,1,0,0-2.215h-4.541a9.658,9.658,0,0,0,.665-3.914A1.666,1.666,0,0,0,185.43,91H185.1a.573.573,0,0,0-.532.421c-.548,2.133-1.4,4.581-3.566,5.077v8.014l1.916.636a5.522,5.522,0,0,0,1.75.288h5.195a1.108,1.108,0,1,0,0-2.215h1.108a1.108,1.108,0,1,0,0-2.215A1.111,1.111,0,0,0,192.076,99.9Z" transform="translate(-181 -91)"/></g></g><g transform="translate(31 8.562)"><g transform="translate(0)"><path fill="currentColor" class="a" d="M33.769,212H31.554a.554.554,0,0,0-.554.554v9.969a.554.554,0,0,0,.554.554h2.215a1.663,1.663,0,0,0,1.661-1.661v-7.753A1.663,1.663,0,0,0,33.769,212Zm0,8.861a.554.554,0,1,1,.554-.554A.554.554,0,0,1,33.769,220.861Z" transform="translate(-31 -212)"/></g></g></g></svg>
