<!-- Generated by IcoMoon.io -->
<svg version="1.1" xmlns="http://www.w3.org/2000/svg" viewBox="0 0 1024 1024">
<title></title>
<g id="icomoon-ignore">
</g>
<path fill="currentColor" d="M813.056 153.6v0c0-10.24 8.192-18.432 18.432-18.432 0 0 0 0 0 0 8.192 0 16.384 2.048 22.528 4.096-10.24-16.384-32.768-20.48-49.152-8.192 0 0 0 0 0 0-16.384 10.24-20.48 32.768-8.192 49.152 0 0 0 0 0 0 10.24 16.384 32.768 20.48 49.152 8.192 0 0 0 0 0 0 2.048-2.048 4.096-2.048 4.096-4.096 2.048-2.048 4.096-4.096 6.144-8.192-8.192-4.096-16.384-4.096-24.576-4.096-10.24-2.048-18.432-10.24-18.432-18.432 0 0 0 0 0 0z"></path>
<path fill="currentColor" d="M395.264 614.4l34.816-34.816-65.536-32.768 30.72 67.584z"></path>
<path fill="currentColor" d="M929.792 190.464v0 0 0 0 0z"></path>
<path fill="currentColor" d="M921.6 239.616c47.104 92.16 69.632 196.608 67.584 299.008 0 200.704-73.728 370.688-159.744 370.688v0c-71.68 0-135.168-120.832-153.6-280.576l190.464-190.464c18.432-18.432 30.72-43.008 34.816-67.584l20.48-131.072c-10.24-16.384-22.528-32.768-36.864-45.056-20.48 32.768-63.488 43.008-96.256 22.528 0 0 0 0 0 0-32.768-20.48-43.008-63.488-22.528-96.256 0 0 0 0 0 0 2.048-4.096 6.144-8.192 8.192-12.288 28.672-26.624 71.68-26.624 100.352 0 12.288 12.288 20.48 30.72 20.48 49.152 12.288 10.24 24.576 20.48 34.816 32.768l14.336-88.064c4.096-28.672-14.336-55.296-43.008-59.392 0 0 0 0 0 0-6.144 0-10.24 0-16.384 0l-270.336 40.96c-26.624 4.096-51.2 16.384-69.632 34.816l-528.384 526.336c-20.48 20.48-20.48 53.248 0 73.728l249.856 249.856c20.48 20.48 53.248 20.48 73.728 0l305.152-305.152c24.576 165.888 96.256 282.624 184.32 282.624 108.544 0 194.56-178.176 194.56-405.504 0-151.552-36.864-278.528-94.208-350.208l-8.192 49.152zM360.448 747.52c-6.144 14.336-14.336 24.576-24.576 34.816s-22.528 20.48-36.864 26.624c-10.24 4.096-22.528 6.144-34.816 6.144-10.24-2.048-18.432-6.144-26.624-12.288-2.048-2.048-2.048-2.048-2.048-4.096s0-2.048 2.048-4.096l24.576-26.624c2.048-2.048 2.048-2.048 4.096-2.048s4.096 0 6.144 0c4.096 2.048 10.24 2.048 16.384 0s12.288-6.144 16.384-10.24c6.144-6.144 10.24-12.288 12.288-18.432 2.048-4.096 0-10.24-4.096-14.336-2.048-2.048-6.144-4.096-10.24-4.096s-10.24 2.048-14.336 4.096c-6.144 2.048-12.288 8.192-22.528 14.336-14.336 10.24-30.72 18.432-49.152 20.48-14.336 2.048-28.672-4.096-38.912-14.336-8.192-8.192-12.288-16.384-14.336-28.672s0-22.528 4.096-32.768c6.144-12.288 12.288-24.576 22.528-32.768 10.24-10.24 22.528-18.432 34.816-24.576 10.24-4.096 22.528-6.144 32.768-4.096 8.192 0 18.432 4.096 24.576 10.24 2.048 2.048 2.048 2.048 2.048 4.096s0 2.048-2.048 4.096l-26.624 26.624c-2.048 2.048-6.144 4.096-10.24 4.096-4.096-2.048-8.192-2.048-12.288 0-6.144 2.048-10.24 4.096-14.336 10.24-4.096 4.096-8.192 10.24-10.24 16.384-2.048 4.096 0 10.24 4.096 12.288 4.096 4.096 10.24 4.096 14.336 2.048 10.24-4.096 18.432-8.192 28.672-14.336 12.288-8.192 24.576-16.384 36.864-20.48 8.192-4.096 18.432-4.096 28.672-4.096 10.24 2.048 18.432 8.192 24.576 14.336 8.192 8.192 14.336 18.432 16.384 30.72 6.144 6.144 4.096 18.432-2.048 30.72zM528.384 583.68l-24.576 24.576c-2.048 2.048-6.144 4.096-10.24 2.048l-26.624-12.288-51.2 51.2 12.288 26.624c2.048 4.096 0 8.192-2.048 10.24l-24.576 24.576c-2.048 2.048-2.048 2.048-4.096 2.048s-2.048 0-4.096-2.048c0 0-2.048-2.048-2.048-2.048l-79.872-167.936c-2.048-4.096-2.048-10.24 2.048-14.336l30.72-30.72c4.096-4.096 8.192-4.096 14.336-2.048l169.984 77.824c0 0 2.048 0 2.048 2.048 2.048 2.048 2.048 2.048 2.048 4.096-2.048 4.096-2.048 6.144-4.096 6.144v0zM610.304 499.712c0 2.048-2.048 6.144-4.096 6.144l-30.72 30.72c-2.048 2.048-4.096 4.096-6.144 4.096s-4.096 0-6.144-2.048l-163.84-83.968-2.048-2.048c-2.048-2.048-2.048-2.048-2.048-4.096s0-4.096 2.048-4.096l24.576-24.576c2.048-2.048 4.096-2.048 6.144-4.096 2.048 0 4.096 0 6.144 2.048l114.688 61.44-61.44-112.64c-2.048-2.048-2.048-4.096-2.048-6.144s2.048-4.096 4.096-6.144l24.576-24.576c2.048-2.048 2.048-2.048 4.096-2.048s2.048 0 4.096 2.048c0 0 2.048 2.048 2.048 2.048l83.968 161.792c0 2.048 2.048 4.096 2.048 6.144v0zM669.696 438.272c-2.048 0-4.096 0-4.096-2.048l-124.928-124.928c-2.048-2.048-2.048-2.048-2.048-4.096s0-4.096 2.048-4.096l90.112-92.16c2.048-2.048 4.096-2.048 4.096-2.048 2.048 0 4.096 0 4.096 2.048l18.432 18.432c2.048 2.048 2.048 2.048 2.048 4.096s0 4.096-2.048 4.096l-61.44 61.44 24.576 24.576 57.344-57.344c2.048-2.048 4.096-2.048 4.096-2.048 2.048 0 4.096 0 4.096 2.048l18.432 18.432c2.048 2.048 2.048 4.096 2.048 4.096 0 2.048 0 4.096-2.048 4.096l-57.344 57.344 24.576 24.576 61.44-63.488c2.048-2.048 4.096-2.048 4.096-2.048 2.048 0 4.096 0 4.096 2.048l18.432 18.432c2.048 2.048 2.048 2.048 2.048 4.096s0 4.096-2.048 4.096l-92.16 92.16c6.144 8.192 4.096 8.192 2.048 8.192v0z"></path>
</svg>
