<svg xmlns="http://www.w3.org/2000/svg" width="29.976" height="30" viewBox="0 0 29.976 30"><path d="M29.1,15a.95.95,0,0,0-1,.874,13.128,13.128,0,1,1-13.1-14A12.972,12.972,0,0,1,23.579,5.1l-.8.805a.937.937,0,0,0,.663,1.6h3.125a.938.938,0,0,0,.938-.937V3.438a.938.938,0,0,0-1.6-.662l-1,.995A14.822,14.822,0,0,0,15,0,15,15,0,1,0,29.974,16,.939.939,0,0,0,29.1,15Z" fill="#fff"/><path d="M20.364,8.283,13.8,6.05a.922.922,0,0,0-.6,0L6.636,8.283A.935.935,0,0,0,6,9.17v5.023c0,6.13,6.842,9.11,7.134,9.234a.943.943,0,0,0,.733,0C14.157,23.3,21,20.323,21,14.193V9.17a.935.935,0,0,0-.636-.888Zm-2.756,4.74L14.17,17.4a1.251,1.251,0,0,1-1.8.178L10.186,15.7a1.25,1.25,0,0,1,1.626-1.9l1.2,1.026,2.631-3.349a1.25,1.25,0,0,1,1.966,1.542Z" transform="translate(1.5 1.5)" fill="#fff"/></svg>
