<svg xmlns="http://www.w3.org/2000/svg" width="30" height="30" viewBox="0 0 30 30"><path d="M29.121,14.121h-.982a13.182,13.182,0,0,0-12.26-12.26V.879a.879.879,0,0,0-1.758,0v.982a13.182,13.182,0,0,0-12.26,12.26H.879a.879.879,0,0,0,0,1.758h.982a13.182,13.182,0,0,0,12.26,12.26v.982a.879.879,0,0,0,1.758,0v-.982a13.182,13.182,0,0,0,12.26-12.26h.982a.879.879,0,0,0,0-1.758Zm-3.574,1.752h.834a11.435,11.435,0,0,1-10.5,10.508v-.834a.879.879,0,0,0-1.758,0v.834a11.43,11.43,0,0,1-10.5-10.5h.834a.879.879,0,0,0,0-1.758H3.619a11.43,11.43,0,0,1,10.5-10.5v.834a.879.879,0,0,0,1.758,0V3.619a11.43,11.43,0,0,1,10.5,10.5h-.834a.876.876,0,1,0,0,1.752Z" fill="#fff"/><g transform="translate(11.486 17.637)"><path d="M202.464,302.55a3.517,3.517,0,0,0-6.224.772,3.574,3.574,0,0,0-.072,2.167,7.675,7.675,0,0,0,6.735.014A3.558,3.558,0,0,0,202.464,302.55Z" transform="translate(-196.034 -301)" fill="#fff"/></g><g transform="translate(13.242 12.363)"><path d="M227.758,211a1.758,1.758,0,1,0,1.758,1.758A1.76,1.76,0,0,0,227.758,211Z" transform="translate(-226 -211)" fill="#fff"/></g><g transform="translate(7.09 7.09)"><path d="M128.91,121a7.883,7.883,0,0,0-5.252,13.785,5.128,5.128,0,0,1,2.716-4.33,3.516,3.516,0,1,1,5.074,0,5.273,5.273,0,0,1,1.832,1.662,5.2,5.2,0,0,1,.872,2.68A7.882,7.882,0,0,0,128.91,121Z" transform="translate(-121 -121)" fill="#fff"/></g></svg>
